;TYPE=PLATED
;Layer: PTH_Through_Via
;EasyEDA Pro v2.2.45.4, 2025-12-28 23:20:17
;Gerber Generator version 0.3
M48
METRIC,LZ,0000.00000
;Hole size 1 = 0.30500 METRIC
T01C0.30500
;Hole size 2 = 1.00000 METRIC
T02C1.00000
;Hole size 3 = 3.00000 METRIC
T03C3.00000
%
G05
G90
T01
X123.0249Y-63.2079
X123.63Y-63.195
X122.4153Y-63.2206
X124.23852Y-63.195
X124.84238Y-63.195
X122.41646Y-62.61192
X123.02606Y-62.59922
X123.63116Y-62.58632
X124.23968Y-62.58632
X124.84354Y-62.58632
X122.41646Y-63.83691
X123.02606Y-63.82421
X123.63116Y-63.8113
X124.23968Y-63.8113
X124.84354Y-63.8113
X122.41646Y-62.00482
X123.02606Y-61.99212
X123.63116Y-61.97922
X124.23968Y-61.97922
X124.84354Y-61.97922
X122.41646Y-64.44077
X123.02606Y-64.42807
X123.63116Y-64.41517
X124.23968Y-64.41517
X124.84354Y-64.41517
X119.96885Y-63.695
X126.238Y-66.802
X117.094Y-57.63467
X123.19Y-69.469
X123.19Y-67.691
X123.19Y-68.58
X125.222Y-67.691
X125.222Y-68.58
X125.222Y-69.469
X123.19Y-70.485
X122.682Y-71.247
X122.682Y-72.03735
X122.682Y-72.898
X122.682Y-73.787
X122.682Y-74.64579
X120.142Y-75.311
X120.142Y-76.2
X120.142Y-77.216
X120.142Y-78.105
X120.142Y-78.994
X120.142Y-79.883
X125.476Y-71.882
X125.476Y-72.771
X125.476Y-73.66
X125.476Y-74.549
X128.016Y-75.311
X128.016Y-76.2
X128.016Y-77.216
X128.016Y-78.105
X128.016Y-78.994
X128.016Y-79.883
X125.984Y-69.723
X126.746Y-69.723
X126.238Y-71.882
X128.397Y-70.485
X127.762Y-69.723
X127.762Y-71.882
X127.0Y-71.882
X122.174Y-59.69
X123.063Y-59.69
X121.158Y-59.69
X120.015Y-60.706
X120.015Y-61.595
X120.015Y-62.484
X123.063Y-58.801
X123.063Y-58.039
X123.063Y-57.277
X122.174Y-57.277
X121.285Y-57.277
X122.174Y-55.245
X121.28959Y-55.245
X122.555Y-54.61
X122.555Y-53.848
X122.555Y-53.086
X122.555Y-52.324
X122.555Y-51.562
X120.015Y-50.8
X120.015Y-50.038
X120.015Y-49.276
X120.015Y-48.53188
X120.015Y-47.752
X120.015Y-46.99
X120.015Y-46.24584
X128.143Y-46.228
X128.143Y-46.99
X128.143Y-47.76064
X128.143Y-48.514
X128.143Y-49.26852
X128.143Y-50.038
X128.143Y-50.8
X125.603Y-51.562
X125.603Y-52.324
X125.603Y-53.086
X125.603Y-53.848
X125.603Y-54.60146
X125.603Y-55.3994
X124.968Y-56.896
X124.968Y-56.007
X124.968Y-57.785
X120.777Y-50.8
X122.555Y-50.8
X121.666Y-50.8
X125.603Y-50.8
X127.254Y-50.8
X126.45607Y-50.8
X121.031Y-75.311
X121.92Y-75.311
X122.682Y-75.311
X125.476Y-75.311
X126.28354Y-75.311
X127.18894Y-75.311
X120.396Y-55.245
X119.634Y-55.245
X119.634Y-56.261
X119.634Y-57.27179
X120.396Y-57.277
X125.095Y-58.801
X125.095Y-59.69
X125.984Y-59.69
X126.88967Y-59.69
X127.762Y-59.69
X128.397Y-59.309
X127.0Y-58.293
X121.158Y-67.691
X121.158Y-68.453
X120.396Y-68.453
X119.70661Y-68.453
X118.999Y-68.453
X118.237Y-68.453
X126.111Y-68.326
X126.873Y-68.961
X115.443Y-67.183
X116.205Y-67.183
X116.967Y-67.183
X117.729Y-67.183
X118.237Y-67.691
X118.364Y-66.802
X119.126Y-66.802
X119.655Y-67.40059
X120.396Y-67.691
X125.984Y-58.293
X131.445Y-51.054
X131.445Y-53.594
X131.40411Y-55.89235
X137.16Y-51.943
X129.54Y-51.054
X129.794Y-55.88
X129.667Y-53.594
X127.508Y-66.294
X128.143Y-66.929
X128.778Y-67.564
X132.715Y-67.818
X133.477Y-68.707
X133.477Y-70.739
X131.445Y-73.406
X129.921Y-72.009
X132.842Y-58.674
X132.842Y-59.563
X132.842Y-60.452
X133.477Y-58.674
X134.112Y-59.309
X134.747Y-59.817
X135.001Y-60.50714
X135.255Y-61.341
X133.731Y-61.341
X132.91581Y-61.341
X134.493Y-61.341
X135.763Y-62.103
X135.763Y-62.992
X135.763Y-63.881
X135.763Y-64.77
X135.763Y-65.659
X135.763Y-66.548
X135.763Y-67.437
X135.128Y-68.072
X134.493Y-68.707
X134.493Y-70.739
X135.509Y-70.739
X136.271Y-69.977
X137.033Y-69.215
X137.668Y-68.453
X137.795Y-67.437
X137.795Y-66.5544
X137.795Y-65.6633
X137.795Y-64.77
X137.795Y-63.881
X137.795Y-62.992
X137.795Y-62.103
X138.176Y-61.341
X133.477Y-72.009
X115.316Y-54.61
X116.332Y-54.61
X117.348Y-54.61
X117.983Y-55.245
X118.237Y-56.134
X118.237Y-57.023
X118.237Y-57.912
X118.237Y-57.912
X118.491Y-58.64753
X118.491Y-59.563
X118.491Y-60.35337
X118.491Y-61.151
X118.491Y-61.976
X119.126Y-62.484
X114.173Y-54.61
X111.9496Y-56.642
X112.141Y-58.547
X111.125Y-56.642
X109.982Y-57.531
X109.982Y-56.68876
X109.982Y-58.42
X109.982Y-59.34339
X110.363Y-60.198
X111.125Y-60.833
X112.014Y-60.833
X112.014Y-61.595
X112.014Y-62.484
X112.014Y-63.33484
X112.014Y-64.135
X112.014Y-65.024
X112.014Y-65.913
X112.014Y-66.802
X112.014Y-67.818
X112.014Y-68.707
X112.014Y-69.596
X112.522Y-70.231
X113.284Y-70.612
X114.3Y-70.612
X115.189Y-70.612
X116.078Y-70.612
X116.967Y-70.612
X117.856Y-70.612
X118.745Y-70.612
X119.634Y-70.612
X120.523Y-70.612
X121.412Y-70.612
X122.301Y-70.612
X114.173Y-58.42
X115.951Y-58.547
X115.951Y-61.087
X114.173Y-61.087
X115.1382Y-62.6872
X115.1382Y-63.8048
X127.762Y-58.674
X126.746Y-52.197
X126.746Y-53.086
X127.635Y-53.086
X127.635Y-53.848
X127.635Y-54.61
X126.492Y-55.372
X127.635Y-55.372
X120.015Y-59.69
X128.905Y-71.247
X129.921Y-72.898
X130.556Y-73.406
X132.461Y-73.406
X133.35Y-72.898
X129.286Y-68.199
X111.76Y-55.753
X112.903Y-54.61
X111.76Y-54.61
X130.556Y-68.707
T02
X136.776Y-60.325
X137.693Y-58.166
T03
X112.093Y-48.593
X136.093Y-77.593
X136.093Y-48.593
X112.093Y-77.593
M30