G04 Layer: DrillDrawingLayer*
G04 EasyEDA Pro v2.2.45.4, 2025-12-28 23:20:17*
G04 Gerber Generator version 0.3*
G04 Scale: 100 percent, Rotated: No, Reflected: No*
G04 Dimensions in millimeters*
G04 Leading zeros omitted, absolute positions, 4 integers and 5 decimals*
G04 Generated by one-click*
%FSLAX45Y45*%
%MOMM*%
%AMIconRect*4,1,4,0.28,-0.28,-0.28,-0.28,-0.28,0.28,0.28,0.28,0.28,-0.28,0*4,0,4,0.233333,-0.233333,0.233333,0.233333,-0.233333,0.233333,-0.233333,-0.233333,0.233333,-0.233333,0*%
%AMIconTriangle*4,1,3,-0.339593,0.240473,0.339593,0.240473,0,-0.37884,-0.339593,0.240473,0*4,0,3,-0.265673,0.19404,0,-0.27342,0.266233,0.19404,-0.265673,0.19404,0*%
%ADD10IconRect*%
%ADD11C,0.616X0.522667*%
%ADD12IconTriangle*%
G75*


G04 Drill Drawing Start*
G54D10*
G01X13677600Y-6032500D03*
G01X13769300Y-5816600D03*
G54D11*
G01X11209300Y-7759300D03*
G01X11209300Y-4859300D03*
G01X13609300Y-7759300D03*
G01X13609300Y-4859300D03*
G54D12*
G01X10998200Y-5934339D03*
G01X10998200Y-5842000D03*
G01X10998200Y-5753100D03*
G01X10998200Y-5668876D03*
G01X11036300Y-6019800D03*
G01X11112500Y-6083300D03*
G01X11112500Y-5664200D03*
G01X11176000Y-5575300D03*
G01X11176000Y-5461000D03*
G01X11194960Y-5664200D03*
G01X11201400Y-6959600D03*
G01X11201400Y-6870700D03*
G01X11201400Y-6781800D03*
G01X11201400Y-6680200D03*
G01X11201400Y-6591300D03*
G01X11201400Y-6502400D03*
G01X11201400Y-6413500D03*
G01X11201400Y-6333484D03*
G01X11201400Y-6248400D03*
G01X11201400Y-6159500D03*
G01X11201400Y-6083300D03*
G01X11214100Y-5854700D03*
G01X11252200Y-7023100D03*
G01X11290300Y-5461000D03*
G01X11328400Y-7061200D03*
G01X11417300Y-6108700D03*
G01X11417300Y-5842000D03*
G01X11417300Y-5461000D03*
G01X11430000Y-7061200D03*
G01X11513820Y-6380480D03*
G01X11513820Y-6268720D03*
G01X11518900Y-7061200D03*
G01X11531600Y-5461000D03*
G01X11544300Y-6718300D03*
G01X11595100Y-6108700D03*
G01X11595100Y-5854700D03*
G01X11607800Y-7061200D03*
G01X11620500Y-6718300D03*
G01X11633200Y-5461000D03*
G01X11696700Y-7061200D03*
G01X11696700Y-6718300D03*
G01X11709400Y-5763467D03*
G01X11734800Y-5461000D03*
G01X11772900Y-6718300D03*
G01X11785600Y-7061200D03*
G01X11798300Y-5524500D03*
G01X11823700Y-6845300D03*
G01X11823700Y-6769100D03*
G01X11823700Y-5791200D03*
G01X11823700Y-5791200D03*
G01X11823700Y-5702300D03*
G01X11823700Y-5613400D03*
G01X11836400Y-6680200D03*
G01X11849100Y-6197600D03*
G01X11849100Y-6115100D03*
G01X11849100Y-6035337D03*
G01X11849100Y-5956300D03*
G01X11849100Y-5864753D03*
G01X11874500Y-7061200D03*
G01X11899900Y-6845300D03*
G01X11912600Y-6680200D03*
G01X11912600Y-6248400D03*
G01X11963400Y-7061200D03*
G01X11963400Y-5727179D03*
G01X11963400Y-5626100D03*
G01X11963400Y-5524500D03*
G01X11965500Y-6740059D03*
G01X11970661Y-6845300D03*
G01X11996885Y-6369500D03*
G01X12001500Y-6248400D03*
G01X12001500Y-6159500D03*
G01X12001500Y-6070600D03*
G01X12001500Y-5969000D03*
G01X12001500Y-5080000D03*
G01X12001500Y-5003800D03*
G01X12001500Y-4927600D03*
G01X12001500Y-4853188D03*
G01X12001500Y-4775200D03*
G01X12001500Y-4699000D03*
G01X12001500Y-4624584D03*
G01X12014200Y-7988300D03*
G01X12014200Y-7899400D03*
G01X12014200Y-7810500D03*
G01X12014200Y-7721600D03*
G01X12014200Y-7620000D03*
G01X12014200Y-7531100D03*
G01X12039600Y-6845300D03*
G01X12039600Y-6769100D03*
G01X12039600Y-5727700D03*
G01X12039600Y-5524500D03*
G01X12052300Y-7061200D03*
G01X12077700Y-5080000D03*
G01X12103100Y-7531100D03*
G01X12115800Y-6845300D03*
G01X12115800Y-6769100D03*
G01X12115800Y-5969000D03*
G01X12128500Y-5727700D03*
G01X12128959Y-5524500D03*
G01X12141200Y-7061200D03*
G01X12166600Y-5080000D03*
G01X12192000Y-7531100D03*
G01X12217400Y-5969000D03*
G01X12217400Y-5727700D03*
G01X12217400Y-5524500D03*
G01X12230100Y-7061200D03*
G01X12241530Y-6322060D03*
G01X12241646Y-6444077D03*
G01X12241646Y-6383691D03*
G01X12241646Y-6261192D03*
G01X12241646Y-6200482D03*
G01X12255500Y-5461000D03*
G01X12255500Y-5384800D03*
G01X12255500Y-5308600D03*
G01X12255500Y-5232400D03*
G01X12255500Y-5156200D03*
G01X12255500Y-5080000D03*
G01X12268200Y-7531100D03*
G01X12268200Y-7464579D03*
G01X12268200Y-7378700D03*
G01X12268200Y-7289800D03*
G01X12268200Y-7203735D03*
G01X12268200Y-7124700D03*
G01X12302490Y-6320790D03*
G01X12302606Y-6442807D03*
G01X12302606Y-6382421D03*
G01X12302606Y-6259922D03*
G01X12302606Y-6199212D03*
G01X12306300Y-5969000D03*
G01X12306300Y-5880100D03*
G01X12306300Y-5803900D03*
G01X12306300Y-5727700D03*
G01X12319000Y-7048500D03*
G01X12319000Y-6946900D03*
G01X12319000Y-6858000D03*
G01X12319000Y-6769100D03*
G01X12363000Y-6319500D03*
G01X12363116Y-6441517D03*
G01X12363116Y-6381130D03*
G01X12363116Y-6258632D03*
G01X12363116Y-6197922D03*
G01X12423852Y-6319500D03*
G01X12423968Y-6441517D03*
G01X12423968Y-6381130D03*
G01X12423968Y-6258632D03*
G01X12423968Y-6197922D03*
G01X12484238Y-6319500D03*
G01X12484354Y-6441517D03*
G01X12484354Y-6381130D03*
G01X12484354Y-6258632D03*
G01X12484354Y-6197922D03*
G01X12496800Y-5778500D03*
G01X12496800Y-5689600D03*
G01X12496800Y-5600700D03*
G01X12509500Y-5969000D03*
G01X12509500Y-5880100D03*
G01X12522200Y-6946900D03*
G01X12522200Y-6858000D03*
G01X12522200Y-6769100D03*
G01X12547600Y-7531100D03*
G01X12547600Y-7454900D03*
G01X12547600Y-7366000D03*
G01X12547600Y-7277100D03*
G01X12547600Y-7188200D03*
G01X12560300Y-5539940D03*
G01X12560300Y-5460146D03*
G01X12560300Y-5384800D03*
G01X12560300Y-5308600D03*
G01X12560300Y-5232400D03*
G01X12560300Y-5156200D03*
G01X12560300Y-5080000D03*
G01X12598400Y-6972300D03*
G01X12598400Y-5969000D03*
G01X12598400Y-5829300D03*
G01X12611100Y-6832600D03*
G01X12623800Y-7188200D03*
G01X12623800Y-6680200D03*
G01X12628354Y-7531100D03*
G01X12645607Y-5080000D03*
G01X12649200Y-5537200D03*
G01X12674600Y-6972300D03*
G01X12674600Y-5308600D03*
G01X12674600Y-5219700D03*
G01X12687300Y-6896100D03*
G01X12688967Y-5969000D03*
G01X12700000Y-7188200D03*
G01X12700000Y-5829300D03*
G01X12718894Y-7531100D03*
G01X12725400Y-5080000D03*
G01X12750800Y-6629400D03*
G01X12763500Y-5537200D03*
G01X12763500Y-5461000D03*
G01X12763500Y-5384800D03*
G01X12763500Y-5308600D03*
G01X12776200Y-7188200D03*
G01X12776200Y-6972300D03*
G01X12776200Y-5969000D03*
G01X12776200Y-5867400D03*
G01X12801600Y-7988300D03*
G01X12801600Y-7899400D03*
G01X12801600Y-7810500D03*
G01X12801600Y-7721600D03*
G01X12801600Y-7620000D03*
G01X12801600Y-7531100D03*
G01X12814300Y-6692900D03*
G01X12814300Y-5080000D03*
G01X12814300Y-5003800D03*
G01X12814300Y-4926852D03*
G01X12814300Y-4851400D03*
G01X12814300Y-4776064D03*
G01X12814300Y-4699000D03*
G01X12814300Y-4622800D03*
G01X12839700Y-7048500D03*
G01X12839700Y-5930900D03*
G01X12877800Y-6756400D03*
G01X12890500Y-7124700D03*
G01X12928600Y-6819900D03*
G01X12954000Y-5105400D03*
G01X12966700Y-5359400D03*
G01X12979400Y-5588000D03*
G01X12992100Y-7289800D03*
G01X12992100Y-7200900D03*
G01X13055600Y-7340600D03*
G01X13055600Y-6870700D03*
G01X13140411Y-5589235D03*
G01X13144500Y-7340600D03*
G01X13144500Y-5359400D03*
G01X13144500Y-5105400D03*
G01X13246100Y-7340600D03*
G01X13271500Y-6781800D03*
G01X13284200Y-6045200D03*
G01X13284200Y-5956300D03*
G01X13284200Y-5867400D03*
G01X13291581Y-6134100D03*
G01X13335000Y-7289800D03*
G01X13347700Y-7200900D03*
G01X13347700Y-7073900D03*
G01X13347700Y-6870700D03*
G01X13347700Y-5867400D03*
G01X13373100Y-6134100D03*
G01X13411200Y-5930900D03*
G01X13449300Y-7073900D03*
G01X13449300Y-6870700D03*
G01X13449300Y-6134100D03*
G01X13474700Y-5981700D03*
G01X13500100Y-6050714D03*
G01X13512800Y-6807200D03*
G01X13525500Y-6134100D03*
G01X13550900Y-7073900D03*
G01X13576300Y-6743700D03*
G01X13576300Y-6654800D03*
G01X13576300Y-6565900D03*
G01X13576300Y-6477000D03*
G01X13576300Y-6388100D03*
G01X13576300Y-6299200D03*
G01X13576300Y-6210300D03*
G01X13627100Y-6997700D03*
G01X13703300Y-6921500D03*
G01X13716000Y-5194300D03*
G01X13766800Y-6845300D03*
G01X13779500Y-6743700D03*
G01X13779500Y-6655440D03*
G01X13779500Y-6566330D03*
G01X13779500Y-6477000D03*
G01X13779500Y-6388100D03*
G01X13779500Y-6299200D03*
G01X13779500Y-6210300D03*
G01X13817600Y-6134100D03*
G04 Drill Drawing End*

M02*

