G04 Layer: TopSolderMaskLayer*
G04 EasyEDA Pro v2.2.45.4, 2025-12-28 23:20:17*
G04 Gerber Generator version 0.3*
G04 Scale: 100 percent, Rotated: No, Reflected: No*
G04 Dimensions in millimeters*
G04 Leading zeros omitted, absolute positions, 4 integers and 5 decimals*
G04 Generated by one-click*
%FSLAX45Y45*%
%MOMM*%
%AMRoundRect*1,1,$1,$2,$3*1,1,$1,$4,$5*1,1,$1,0-$2,0-$3*1,1,$1,0-$4,0-$5*20,1,$1,$2,$3,$4,$5,0*20,1,$1,$4,$5,0-$2,0-$3,0*20,1,$1,0-$2,0-$3,0-$4,0-$5,0*20,1,$1,0-$4,0-$5,$2,$3,0*4,1,4,$2,$3,$4,$5,0-$2,0-$3,0-$4,0-$5,$2,$3,0*%
%ADD10C,0.15*%
%ADD11RoundRect,0.08771X-0.32518X0.27695X0.32518X0.27695*%
%ADD12RoundRect,0.08771X-0.27695X-0.32518X-0.27695X0.32518*%
%ADD13RoundRect,0.08771X-0.28977X0.27695X0.28977X0.27695*%
%ADD14RoundRect,0.08771X-0.27695X-0.28977X-0.27695X0.28977*%
%ADD15RoundRect,0.08752X-0.50625X-0.30625X-0.50625X0.30625*%
%ADD16R,1.0X0.6*%
%ADD17R,2.47X0.98001*%
%ADD18R,2.4783X3.59999*%
%ADD19R,2.47X3.59999*%
%ADD20RoundRect,0.08771X-0.27695X-0.40199X-0.27695X0.40199*%
%ADD21RoundRect,0.08771X-0.40199X0.27695X0.40199X0.27695*%
%ADD22RoundRect,0.09495X-0.70833X0.67833X0.70833X0.67833*%
%ADD23R,1.41X1.35001*%
%ADD24R,1.35001X1.41*%
%ADD25RoundRect,0.09495X-0.67833X-0.70833X-0.67833X0.70833*%
%ADD26R,1.0X0.55*%
%ADD27R,0.55X1.0*%
%ADD28R,3.4X3.4*%
%ADD29R,1.5X4.5*%
%ADD30C,0.61*%
%ADD31C,1.8*%
%ADD32C,5.0*%
G75*


G04 Text Start*
G54D10*
G01X11039856Y-6132322D02*
G01X10991596Y-6152896D01*
G01X11039856Y-6173470D02*
G01X10991596Y-6152896D01*
G01X10977880Y-6146038D01*
G01X10971022Y-6139180D01*
G01X10967720Y-6132322D01*
G01X10967720Y-6129020D01*
G01X11019282Y-6204966D02*
G01X11019282Y-6246114D01*
G01X11026140Y-6246114D01*
G01X11032998Y-6242812D01*
G01X11036300Y-6239256D01*
G01X11039856Y-6232398D01*
G01X11039856Y-6222238D01*
G01X11036300Y-6215380D01*
G01X11029442Y-6208522D01*
G01X11019282Y-6204966D01*
G01X11012170Y-6204966D01*
G01X11002010Y-6208522D01*
G01X10995152Y-6215380D01*
G01X10991596Y-6222238D01*
G01X10991596Y-6232398D01*
G01X10995152Y-6239256D01*
G01X11002010Y-6246114D01*
G01X11039856Y-6277610D02*
G01X10991596Y-6277610D01*
G01X11026140Y-6277610D02*
G01X11036300Y-6288024D01*
G01X11039856Y-6294882D01*
G01X11039856Y-6305042D01*
G01X11036300Y-6311900D01*
G01X11026140Y-6315456D01*
G01X10991596Y-6315456D01*
G01X11063732Y-6346952D02*
G01X11060430Y-6350508D01*
G01X11063732Y-6353810D01*
G01X11067288Y-6350508D01*
G01X11063732Y-6346952D01*
G01X11039856Y-6350508D02*
G01X10991596Y-6350508D01*
G01X11063732Y-6426454D02*
G01X10991596Y-6426454D01*
G01X11029442Y-6426454D02*
G01X11036300Y-6419596D01*
G01X11039856Y-6412738D01*
G01X11039856Y-6402578D01*
G01X11036300Y-6395720D01*
G01X11029442Y-6388862D01*
G01X11019282Y-6385306D01*
G01X11012170Y-6385306D01*
G01X11002010Y-6388862D01*
G01X10995152Y-6395720D01*
G01X10991596Y-6402578D01*
G01X10991596Y-6412738D01*
G01X10995152Y-6419596D01*
G01X11002010Y-6426454D01*
G01X11019282Y-6457950D02*
G01X11019282Y-6499098D01*
G01X11026140Y-6499098D01*
G01X11032998Y-6495796D01*
G01X11036300Y-6492240D01*
G01X11039856Y-6485382D01*
G01X11039856Y-6475222D01*
G01X11036300Y-6468364D01*
G01X11029442Y-6461506D01*
G01X11019282Y-6457950D01*
G01X11012170Y-6457950D01*
G01X11002010Y-6461506D01*
G01X10995152Y-6468364D01*
G01X10991596Y-6475222D01*
G01X10991596Y-6485382D01*
G01X10995152Y-6492240D01*
G01X11002010Y-6499098D01*
G01X11039856Y-6530594D02*
G01X10991596Y-6530594D01*
G01X11026140Y-6530594D02*
G01X11036300Y-6541008D01*
G01X11039856Y-6547866D01*
G01X11039856Y-6558026D01*
G01X11036300Y-6564884D01*
G01X11026140Y-6568440D01*
G01X10991596Y-6568440D01*
G01X11063732Y-6704330D02*
G01X10991596Y-6676898D01*
G01X11063732Y-6704330D02*
G01X10991596Y-6732016D01*
G01X11015726Y-6687312D02*
G01X11015726Y-6721602D01*
G01X11063732Y-6787642D02*
G01X10991596Y-6787642D01*
G01X11063732Y-6763512D02*
G01X11063732Y-6811518D01*
G01X11063732Y-6863588D02*
G01X11060430Y-6856730D01*
G01X11053572Y-6849872D01*
G01X11046714Y-6846570D01*
G01X11036300Y-6843014D01*
G01X11019282Y-6843014D01*
G01X11008868Y-6846570D01*
G01X11002010Y-6849872D01*
G01X10995152Y-6856730D01*
G01X10991596Y-6863588D01*
G01X10991596Y-6877304D01*
G01X10995152Y-6884162D01*
G01X11002010Y-6891020D01*
G01X11008868Y-6894576D01*
G01X11019282Y-6898132D01*
G01X11036300Y-6898132D01*
G01X11046714Y-6894576D01*
G01X11053572Y-6891020D01*
G01X11060430Y-6884162D01*
G01X11063732Y-6877304D01*
G01X11063732Y-6863588D01*
G01X11063732Y-6929628D02*
G01X10991596Y-6929628D01*
G01X10991596Y-6929628D02*
G01X10991596Y-6970776D01*
G01X11063732Y-7002272D02*
G01X11029442Y-7029704D01*
G01X10991596Y-7029704D01*
G01X11063732Y-7057390D02*
G01X11029442Y-7029704D01*
G01X11063732Y-7088886D02*
G01X10991596Y-7088886D01*
G01X11063732Y-7088886D02*
G01X11063732Y-7133590D01*
G01X11029442Y-7088886D02*
G01X11029442Y-7116318D01*
G01X10991596Y-7088886D02*
G01X10991596Y-7133590D01*
G01X11046714Y-7245604D02*
G01X11050016Y-7245604D01*
G01X11056874Y-7248906D01*
G01X11060430Y-7252462D01*
G01X11063732Y-7259320D01*
G01X11063732Y-7273036D01*
G01X11060430Y-7279894D01*
G01X11056874Y-7283450D01*
G01X11050016Y-7286752D01*
G01X11043158Y-7286752D01*
G01X11036300Y-7283450D01*
G01X11026140Y-7276592D01*
G01X10991596Y-7242048D01*
G01X10991596Y-7290308D01*
G01X11063732Y-7342378D02*
G01X11060430Y-7332218D01*
G01X11050016Y-7325360D01*
G01X11032998Y-7321804D01*
G01X11022584Y-7321804D01*
G01X11005312Y-7325360D01*
G01X10995152Y-7332218D01*
G01X10991596Y-7342378D01*
G01X10991596Y-7349236D01*
G01X10995152Y-7359650D01*
G01X11005312Y-7366508D01*
G01X11022584Y-7369810D01*
G01X11032998Y-7369810D01*
G01X11050016Y-7366508D01*
G01X11060430Y-7359650D01*
G01X11063732Y-7349236D01*
G01X11063732Y-7342378D01*
G01X11046714Y-7404862D02*
G01X11050016Y-7404862D01*
G01X11056874Y-7408164D01*
G01X11060430Y-7411720D01*
G01X11063732Y-7418578D01*
G01X11063732Y-7432294D01*
G01X11060430Y-7439152D01*
G01X11056874Y-7442454D01*
G01X11050016Y-7446010D01*
G01X11043158Y-7446010D01*
G01X11036300Y-7442454D01*
G01X11026140Y-7435596D01*
G01X10991596Y-7401306D01*
G01X10991596Y-7449312D01*
G01X11063732Y-7521956D02*
G01X11063732Y-7487666D01*
G01X11032998Y-7484364D01*
G01X11036300Y-7487666D01*
G01X11039856Y-7498080D01*
G01X11039856Y-7508240D01*
G01X11036300Y-7518654D01*
G01X11029442Y-7525512D01*
G01X11019282Y-7528814D01*
G01X11012170Y-7528814D01*
G01X11002010Y-7525512D01*
G01X10995152Y-7518654D01*
G01X10991596Y-7508240D01*
G01X10991596Y-7498080D01*
G01X10995152Y-7487666D01*
G01X10998454Y-7484364D01*
G01X11005312Y-7480808D01*
G04 Text End*

G04 Pad Start*
G54D11*
G01X11318723Y-5981700D03*
G01X11211077Y-5981700D03*
G54D12*
G01X12865100Y-5476723D03*
G01X12865100Y-5369077D03*
G54D13*
G01X12870282Y-5219700D03*
G01X12783718Y-5219700D03*
G54D14*
G01X11112500Y-5847182D03*
G01X11112500Y-5760618D03*
G54D15*
G01X11307293Y-5759196D03*
G01X11307293Y-5569204D03*
G01X11527307Y-5759196D03*
G01X11527307Y-5569204D03*
G54D16*
G01X11527307Y-5664200D03*
G54D17*
G01X13140411Y-5243703D03*
G01X13140411Y-5473700D03*
G01X13140411Y-5703697D03*
G54D19*
G01X13707389Y-5473700D03*
G54D20*
G01X12992100Y-7077608D03*
G01X12992100Y-6968592D03*
G54D21*
G01X11604092Y-6337300D03*
G01X11713108Y-6337300D03*
G54D22*
G01X11495100Y-5981700D03*
G01X11695100Y-5981700D03*
G54D21*
G01X11421008Y-6337300D03*
G01X11311992Y-6337300D03*
G01X11421008Y-6197600D03*
G01X11311992Y-6197600D03*
G01X11421008Y-6845300D03*
G01X11311992Y-6845300D03*
G01X11421008Y-6718300D03*
G01X11311992Y-6718300D03*
G54D23*
G01X12638100Y-5689600D03*
G54D22*
G01X12838100Y-5689600D03*
G54D21*
G01X13160908Y-5867400D03*
G01X13051892Y-5867400D03*
G54D20*
G01X11722100Y-6841592D03*
G01X11722100Y-6950608D03*
G01X11582400Y-6841592D03*
G01X11582400Y-6950608D03*
G01X13182600Y-6112408D03*
G01X13182600Y-6003392D03*
G54D21*
G01X13427608Y-6261100D03*
G01X13318592Y-6261100D03*
G54D20*
G01X13042900Y-6518808D03*
G01X13042900Y-6409792D03*
G01X13182600Y-6518808D03*
G01X13182600Y-6409792D03*
G54D21*
G01X13039192Y-6781800D03*
G01X13148208Y-6781800D03*
G54D24*
G01X13182600Y-7173900D03*
G54D25*
G01X13182600Y-6973900D03*
G01X12407900Y-5421300D03*
G01X12407900Y-5221300D03*
G01X12407900Y-7389800D03*
G01X12407900Y-7189800D03*
G54D21*
G01X11604092Y-6197600D03*
G01X11713108Y-6197600D03*
G54D20*
G01X13042900Y-6003392D03*
G01X13042900Y-6112408D03*
G54D21*
G01X13160908Y-6261100D03*
G01X13051892Y-6261100D03*
G54D20*
G01X12407900Y-5622392D03*
G01X12407900Y-5731408D03*
G54D21*
G01X12073992Y-5626100D03*
G01X12183008Y-5626100D03*
G54D20*
G01X12412980Y-6868262D03*
G01X12412980Y-6977278D03*
G54D21*
G01X12715138Y-7078980D03*
G01X12606122Y-7078980D03*
G01X12208408Y-6946900D03*
G01X12099392Y-6946900D03*
G01X11725808Y-6464300D03*
G01X11616792Y-6464300D03*
G01X11725808Y-6591300D03*
G01X11616792Y-6591300D03*
G54D13*
G01X11397082Y-6464300D03*
G01X11310518Y-6464300D03*
G01X11397082Y-6591300D03*
G01X11310518Y-6591300D03*
G01X13050418Y-6654800D03*
G01X13136982Y-6654800D03*
G01X13279018Y-6654800D03*
G01X13365582Y-6654800D03*
G01X11943182Y-6946900D03*
G01X11856618Y-6946900D03*
G54D26*
G01X12100000Y-6069500D03*
G01X12100000Y-6169500D03*
G01X12100000Y-6269500D03*
G01X12100000Y-6369500D03*
G01X12100000Y-6469500D03*
G01X12100000Y-6569500D03*
G54D27*
G01X12213000Y-6580000D03*
G01X12313000Y-6580000D03*
G01X12413000Y-6580000D03*
G01X12513000Y-6580000D03*
G54D26*
G01X12625000Y-6569500D03*
G01X12625000Y-6469500D03*
G01X12625000Y-6369500D03*
G01X12625000Y-6269500D03*
G01X12625000Y-6169500D03*
G01X12625000Y-6069500D03*
G54D27*
G01X12513000Y-6060000D03*
G01X12413000Y-6060000D03*
G01X12313000Y-6060000D03*
G01X12213000Y-6060000D03*
G54D28*
G01X12363000Y-6319500D03*
G54D29*
G01X12662878Y-4815000D03*
G01X12152897Y-4815000D03*
G01X12407887Y-4815000D03*
G01X12152922Y-7800000D03*
G01X12662903Y-7800000D03*
G01X12407913Y-7800000D03*
G04 Pad End*

G04 Via Start*
G54D30*
G01X12302490Y-6320790D03*
G01X12363000Y-6319500D03*
G01X12241530Y-6322060D03*
G01X12423852Y-6319500D03*
G01X12484238Y-6319500D03*
G01X12241646Y-6261192D03*
G01X12302606Y-6259922D03*
G01X12363116Y-6258632D03*
G01X12423968Y-6258632D03*
G01X12484354Y-6258632D03*
G01X12241646Y-6383691D03*
G01X12302606Y-6382421D03*
G01X12363116Y-6381130D03*
G01X12423968Y-6381130D03*
G01X12484354Y-6381130D03*
G01X12241646Y-6200482D03*
G01X12302606Y-6199212D03*
G01X12363116Y-6197922D03*
G01X12423968Y-6197922D03*
G01X12484354Y-6197922D03*
G01X12241646Y-6444077D03*
G01X12302606Y-6442807D03*
G01X12363116Y-6441517D03*
G01X12423968Y-6441517D03*
G01X12484354Y-6441517D03*
G01X11996885Y-6369500D03*
G01X12623800Y-6680200D03*
G54D31*
G01X13677600Y-6032500D03*
G01X13769300Y-5816600D03*
G54D30*
G01X11709400Y-5763467D03*
G54D32*
G01X11209300Y-4859300D03*
G01X13609300Y-7759300D03*
G01X13609300Y-4859300D03*
G01X11209300Y-7759300D03*
G54D30*
G01X12319000Y-6946900D03*
G01X12319000Y-6769100D03*
G01X12319000Y-6858000D03*
G01X12522200Y-6769100D03*
G01X12522200Y-6858000D03*
G01X12522200Y-6946900D03*
G01X12319000Y-7048500D03*
G01X12268200Y-7124700D03*
G01X12268200Y-7203735D03*
G01X12268200Y-7289800D03*
G01X12268200Y-7378700D03*
G01X12268200Y-7464579D03*
G01X12014200Y-7531100D03*
G01X12014200Y-7620000D03*
G01X12014200Y-7721600D03*
G01X12014200Y-7810500D03*
G01X12014200Y-7899400D03*
G01X12014200Y-7988300D03*
G01X12547600Y-7188200D03*
G01X12547600Y-7277100D03*
G01X12547600Y-7366000D03*
G01X12547600Y-7454900D03*
G01X12801600Y-7531100D03*
G01X12801600Y-7620000D03*
G01X12801600Y-7721600D03*
G01X12801600Y-7810500D03*
G01X12801600Y-7899400D03*
G01X12801600Y-7988300D03*
G01X12598400Y-6972300D03*
G01X12674600Y-6972300D03*
G01X12623800Y-7188200D03*
G01X12839700Y-7048500D03*
G01X12776200Y-6972300D03*
G01X12776200Y-7188200D03*
G01X12700000Y-7188200D03*
G01X12217400Y-5969000D03*
G01X12306300Y-5969000D03*
G01X12115800Y-5969000D03*
G01X12001500Y-6070600D03*
G01X12001500Y-6159500D03*
G01X12001500Y-6248400D03*
G01X12306300Y-5880100D03*
G01X12306300Y-5803900D03*
G01X12306300Y-5727700D03*
G01X12217400Y-5727700D03*
G01X12128500Y-5727700D03*
G01X12217400Y-5524500D03*
G01X12128959Y-5524500D03*
G01X12255500Y-5461000D03*
G01X12255500Y-5384800D03*
G01X12255500Y-5308600D03*
G01X12255500Y-5232400D03*
G01X12255500Y-5156200D03*
G01X12001500Y-5080000D03*
G01X12001500Y-5003800D03*
G01X12001500Y-4927600D03*
G01X12001500Y-4853188D03*
G01X12001500Y-4775200D03*
G01X12001500Y-4699000D03*
G01X12001500Y-4624584D03*
G01X12814300Y-4622800D03*
G01X12814300Y-4699000D03*
G01X12814300Y-4776064D03*
G01X12814300Y-4851400D03*
G01X12814300Y-4926852D03*
G01X12814300Y-5003800D03*
G01X12814300Y-5080000D03*
G01X12560300Y-5156200D03*
G01X12560300Y-5232400D03*
G01X12560300Y-5308600D03*
G01X12560300Y-5384800D03*
G01X12560300Y-5460146D03*
G01X12560300Y-5539940D03*
G01X12496800Y-5689600D03*
G01X12496800Y-5600700D03*
G01X12496800Y-5778500D03*
G01X12077700Y-5080000D03*
G01X12255500Y-5080000D03*
G01X12166600Y-5080000D03*
G01X12560300Y-5080000D03*
G01X12725400Y-5080000D03*
G01X12645607Y-5080000D03*
G01X12103100Y-7531100D03*
G01X12192000Y-7531100D03*
G01X12268200Y-7531100D03*
G01X12547600Y-7531100D03*
G01X12628354Y-7531100D03*
G01X12718894Y-7531100D03*
G01X12039600Y-5524500D03*
G01X11963400Y-5524500D03*
G01X11963400Y-5626100D03*
G01X11963400Y-5727179D03*
G01X12039600Y-5727700D03*
G01X12509500Y-5880100D03*
G01X12509500Y-5969000D03*
G01X12598400Y-5969000D03*
G01X12688967Y-5969000D03*
G01X12776200Y-5969000D03*
G01X12839700Y-5930900D03*
G01X12700000Y-5829300D03*
G01X12115800Y-6769100D03*
G01X12115800Y-6845300D03*
G01X12039600Y-6845300D03*
G01X11970661Y-6845300D03*
G01X11899900Y-6845300D03*
G01X11823700Y-6845300D03*
G01X12611100Y-6832600D03*
G01X12687300Y-6896100D03*
G01X11544300Y-6718300D03*
G01X11620500Y-6718300D03*
G01X11696700Y-6718300D03*
G01X11772900Y-6718300D03*
G01X11823700Y-6769100D03*
G01X11836400Y-6680200D03*
G01X11912600Y-6680200D03*
G01X11965500Y-6740059D03*
G01X12039600Y-6769100D03*
G01X12598400Y-5829300D03*
G01X13144500Y-5105400D03*
G01X13144500Y-5359400D03*
G01X13140411Y-5589235D03*
G01X13716000Y-5194300D03*
G01X12954000Y-5105400D03*
G01X12979400Y-5588000D03*
G01X12966700Y-5359400D03*
G01X12750800Y-6629400D03*
G01X12814300Y-6692900D03*
G01X12877800Y-6756400D03*
G01X13271500Y-6781800D03*
G01X13347700Y-6870700D03*
G01X13347700Y-7073900D03*
G01X13144500Y-7340600D03*
G01X12992100Y-7200900D03*
G01X13284200Y-5867400D03*
G01X13284200Y-5956300D03*
G01X13284200Y-6045200D03*
G01X13347700Y-5867400D03*
G01X13411200Y-5930900D03*
G01X13474700Y-5981700D03*
G01X13500100Y-6050714D03*
G01X13525500Y-6134100D03*
G01X13373100Y-6134100D03*
G01X13291581Y-6134100D03*
G01X13449300Y-6134100D03*
G01X13576300Y-6210300D03*
G01X13576300Y-6299200D03*
G01X13576300Y-6388100D03*
G01X13576300Y-6477000D03*
G01X13576300Y-6565900D03*
G01X13576300Y-6654800D03*
G01X13576300Y-6743700D03*
G01X13512800Y-6807200D03*
G01X13449300Y-6870700D03*
G01X13449300Y-7073900D03*
G01X13550900Y-7073900D03*
G01X13627100Y-6997700D03*
G01X13703300Y-6921500D03*
G01X13766800Y-6845300D03*
G01X13779500Y-6743700D03*
G01X13779500Y-6655440D03*
G01X13779500Y-6566330D03*
G01X13779500Y-6477000D03*
G01X13779500Y-6388100D03*
G01X13779500Y-6299200D03*
G01X13779500Y-6210300D03*
G01X13817600Y-6134100D03*
G01X13347700Y-7200900D03*
G01X11531600Y-5461000D03*
G01X11633200Y-5461000D03*
G01X11734800Y-5461000D03*
G01X11798300Y-5524500D03*
G01X11823700Y-5613400D03*
G01X11823700Y-5702300D03*
G01X11823700Y-5791200D03*
G01X11823700Y-5791200D03*
G01X11849100Y-5864753D03*
G01X11849100Y-5956300D03*
G01X11849100Y-6035337D03*
G01X11849100Y-6115100D03*
G01X11849100Y-6197600D03*
G01X11912600Y-6248400D03*
G01X11417300Y-5461000D03*
G01X11194960Y-5664200D03*
G01X11214100Y-5854700D03*
G01X11112500Y-5664200D03*
G01X10998200Y-5753100D03*
G01X10998200Y-5668876D03*
G01X10998200Y-5842000D03*
G01X10998200Y-5934339D03*
G01X11036300Y-6019800D03*
G01X11112500Y-6083300D03*
G01X11201400Y-6083300D03*
G01X11201400Y-6159500D03*
G01X11201400Y-6248400D03*
G01X11201400Y-6333484D03*
G01X11201400Y-6413500D03*
G01X11201400Y-6502400D03*
G01X11201400Y-6591300D03*
G01X11201400Y-6680200D03*
G01X11201400Y-6781800D03*
G01X11201400Y-6870700D03*
G01X11201400Y-6959600D03*
G01X11252200Y-7023100D03*
G01X11328400Y-7061200D03*
G01X11430000Y-7061200D03*
G01X11518900Y-7061200D03*
G01X11607800Y-7061200D03*
G01X11696700Y-7061200D03*
G01X11785600Y-7061200D03*
G01X11874500Y-7061200D03*
G01X11963400Y-7061200D03*
G01X12052300Y-7061200D03*
G01X12141200Y-7061200D03*
G01X12230100Y-7061200D03*
G01X11417300Y-5842000D03*
G01X11595100Y-5854700D03*
G01X11595100Y-6108700D03*
G01X11417300Y-6108700D03*
G01X11513820Y-6268720D03*
G01X11513820Y-6380480D03*
G01X12776200Y-5867400D03*
G01X12674600Y-5219700D03*
G01X12674600Y-5308600D03*
G01X12763500Y-5308600D03*
G01X12763500Y-5384800D03*
G01X12763500Y-5461000D03*
G01X12649200Y-5537200D03*
G01X12763500Y-5537200D03*
G01X12001500Y-5969000D03*
G01X12890500Y-7124700D03*
G01X12992100Y-7289800D03*
G01X13055600Y-7340600D03*
G01X13246100Y-7340600D03*
G01X13335000Y-7289800D03*
G01X12928600Y-6819900D03*
G01X11176000Y-5575300D03*
G01X11290300Y-5461000D03*
G01X11176000Y-5461000D03*
G01X13055600Y-6870700D03*
G04 Via End*

M02*

