G04 Layer: TopPasteMaskLayer*
G04 EasyEDA Pro v2.2.45.4, 2025-12-28 23:20:17*
G04 Gerber Generator version 0.3*
G04 Scale: 100 percent, Rotated: No, Reflected: No*
G04 Dimensions in millimeters*
G04 Leading zeros omitted, absolute positions, 4 integers and 5 decimals*
G04 Generated by one-click*
%FSLAX45Y45*%
%MOMM*%
%ADD10R,1.0X0.6*%
%ADD11R,2.47X0.98001*%
%ADD12R,2.47X3.59999*%
%ADD13R,1.41X1.35001*%
%ADD14R,1.35001X1.41*%
%ADD15R,1.0X0.55*%
%ADD16R,0.55X1.0*%
%ADD17R,3.4X3.4*%
%ADD18R,1.5047X4.5*%
%ADD19R,1.5X4.5*%
G75*


G04 PolygonModel Start*
G36*
G01X11284699Y-6004700D02*
G01X11284699Y-5958700D01*
G01X11288700Y-5954700D01*
G01X11346548Y-5954700D01*
G01X11350549Y-5958700D01*
G01X11350549Y-6004700D01*
G01X11346548Y-6008700D01*
G01X11288700Y-6008700D01*
G01X11284699Y-6004700D01*
G37*
G36*
G01X11245101Y-6004700D02*
G01X11245101Y-5958700D01*
G01X11241100Y-5954700D01*
G01X11183252Y-5954700D01*
G01X11179251Y-5958700D01*
G01X11179251Y-6004700D01*
G01X11183252Y-6008700D01*
G01X11241100Y-6008700D01*
G01X11245101Y-6004700D01*
G37*
G36*
G01X12842100Y-5442699D02*
G01X12888100Y-5442699D01*
G01X12892100Y-5446700D01*
G01X12892100Y-5504548D01*
G01X12888100Y-5508549D01*
G01X12842100Y-5508549D01*
G01X12838100Y-5504548D01*
G01X12838100Y-5446700D01*
G01X12842100Y-5442699D01*
G37*
G36*
G01X12842100Y-5403101D02*
G01X12888100Y-5403101D01*
G01X12892100Y-5399100D01*
G01X12892100Y-5341252D01*
G01X12888100Y-5337251D01*
G01X12842100Y-5337251D01*
G01X12838100Y-5341252D01*
G01X12838100Y-5399100D01*
G01X12842100Y-5403101D01*
G37*
G36*
G01X12840500Y-5242700D02*
G01X12840500Y-5196700D01*
G01X12844501Y-5192700D01*
G01X12894564Y-5192700D01*
G01X12898565Y-5196700D01*
G01X12898565Y-5242700D01*
G01X12894564Y-5246700D01*
G01X12844501Y-5246700D01*
G01X12840500Y-5242700D01*
G37*
G36*
G01X12813500Y-5242700D02*
G01X12813500Y-5196700D01*
G01X12809499Y-5192700D01*
G01X12759436Y-5192700D01*
G01X12755436Y-5196700D01*
G01X12755436Y-5242700D01*
G01X12759436Y-5246700D01*
G01X12809499Y-5246700D01*
G01X12813500Y-5242700D01*
G37*
G36*
G01X11089500Y-5817400D02*
G01X11135500Y-5817400D01*
G01X11139500Y-5821401D01*
G01X11139500Y-5871464D01*
G01X11135500Y-5875464D01*
G01X11089500Y-5875464D01*
G01X11085500Y-5871464D01*
G01X11085500Y-5821401D01*
G01X11089500Y-5817400D01*
G37*
G36*
G01X11089500Y-5790400D02*
G01X11135500Y-5790400D01*
G01X11139500Y-5786399D01*
G01X11139500Y-5736336D01*
G01X11135500Y-5732335D01*
G01X11089500Y-5732335D01*
G01X11085500Y-5736336D01*
G01X11085500Y-5786399D01*
G01X11089500Y-5790400D01*
G37*
G36*
G01X13014602Y-7005096D02*
G01X12969601Y-7005096D01*
G01X12964602Y-6998099D01*
G01X12964602Y-6950098D01*
G01X12969601Y-6945097D01*
G01X13014602Y-6945097D01*
G01X13019601Y-6950098D01*
G01X13019601Y-6998099D01*
G01X13014602Y-7005096D01*
G37*
G36*
G01X13014602Y-7101098D02*
G01X12969601Y-7101098D01*
G01X12964602Y-7096097D01*
G01X12964602Y-7048099D01*
G01X12969601Y-7041098D01*
G01X13014602Y-7041098D01*
G01X13019601Y-7048099D01*
G01X13019601Y-7096097D01*
G01X13014602Y-7101098D01*
G37*
G36*
G01X11676604Y-6359802D02*
G01X11676604Y-6314801D01*
G01X11683601Y-6309802D01*
G01X11731602Y-6309802D01*
G01X11736603Y-6314801D01*
G01X11736603Y-6359802D01*
G01X11731602Y-6364801D01*
G01X11683601Y-6364801D01*
G01X11676604Y-6359802D01*
G37*
G36*
G01X11580602Y-6359802D02*
G01X11580602Y-6314801D01*
G01X11585603Y-6309802D01*
G01X11633601Y-6309802D01*
G01X11640602Y-6314801D01*
G01X11640602Y-6359802D01*
G01X11633601Y-6364801D01*
G01X11585603Y-6364801D01*
G01X11580602Y-6359802D01*
G37*
G36*
G01X11765598Y-5917700D02*
G01X11765598Y-6045698D01*
G01X11760596Y-6050699D01*
G01X11645595Y-6050699D01*
G01X11640596Y-6045698D01*
G01X11640094Y-6004695D01*
G01X11685095Y-6004695D01*
G01X11685095Y-5959696D01*
G01X11641094Y-5959696D01*
G01X11640596Y-5917700D01*
G01X11645595Y-5912698D01*
G01X11760596Y-5912698D01*
G01X11765598Y-5917700D01*
G37*
G36*
G01X11424603Y-6045700D02*
G01X11424603Y-5917702D01*
G01X11429604Y-5912701D01*
G01X11544605Y-5912701D01*
G01X11549604Y-5917702D01*
G01X11550106Y-5958705D01*
G01X11505105Y-5958705D01*
G01X11505105Y-6003704D01*
G01X11549106Y-6003704D01*
G01X11549604Y-6045700D01*
G01X11544605Y-6050702D01*
G01X11429604Y-6050702D01*
G01X11424603Y-6045700D01*
G37*
G36*
G01X11348496Y-6314798D02*
G01X11348496Y-6359799D01*
G01X11341499Y-6364798D01*
G01X11293498Y-6364798D01*
G01X11288497Y-6359799D01*
G01X11288497Y-6314798D01*
G01X11293498Y-6309799D01*
G01X11341499Y-6309799D01*
G01X11348496Y-6314798D01*
G37*
G36*
G01X11444498Y-6314798D02*
G01X11444498Y-6359799D01*
G01X11439497Y-6364798D01*
G01X11391499Y-6364798D01*
G01X11384498Y-6359799D01*
G01X11384498Y-6314798D01*
G01X11391499Y-6309799D01*
G01X11439497Y-6309799D01*
G01X11444498Y-6314798D01*
G37*
G36*
G01X11348496Y-6175098D02*
G01X11348496Y-6220099D01*
G01X11341499Y-6225098D01*
G01X11293498Y-6225098D01*
G01X11288497Y-6220099D01*
G01X11288497Y-6175098D01*
G01X11293498Y-6170099D01*
G01X11341499Y-6170099D01*
G01X11348496Y-6175098D01*
G37*
G36*
G01X11444498Y-6175098D02*
G01X11444498Y-6220099D01*
G01X11439497Y-6225098D01*
G01X11391499Y-6225098D01*
G01X11384498Y-6220099D01*
G01X11384498Y-6175098D01*
G01X11391499Y-6170099D01*
G01X11439497Y-6170099D01*
G01X11444498Y-6175098D01*
G37*
G36*
G01X11348496Y-6822798D02*
G01X11348496Y-6867799D01*
G01X11341499Y-6872798D01*
G01X11293498Y-6872798D01*
G01X11288497Y-6867799D01*
G01X11288497Y-6822798D01*
G01X11293498Y-6817799D01*
G01X11341499Y-6817799D01*
G01X11348496Y-6822798D01*
G37*
G36*
G01X11444498Y-6822798D02*
G01X11444498Y-6867799D01*
G01X11439497Y-6872798D01*
G01X11391499Y-6872798D01*
G01X11384498Y-6867799D01*
G01X11384498Y-6822798D01*
G01X11391499Y-6817799D01*
G01X11439497Y-6817799D01*
G01X11444498Y-6822798D01*
G37*
G36*
G01X11348496Y-6695798D02*
G01X11348496Y-6740799D01*
G01X11341499Y-6745798D01*
G01X11293498Y-6745798D01*
G01X11288497Y-6740799D01*
G01X11288497Y-6695798D01*
G01X11293498Y-6690799D01*
G01X11341499Y-6690799D01*
G01X11348496Y-6695798D01*
G37*
G36*
G01X11444498Y-6695798D02*
G01X11444498Y-6740799D01*
G01X11439497Y-6745798D01*
G01X11391499Y-6745798D01*
G01X11384498Y-6740799D01*
G01X11384498Y-6695798D01*
G01X11391499Y-6690799D01*
G01X11439497Y-6690799D01*
G01X11444498Y-6695798D01*
G37*
G36*
G01X12908598Y-5625600D02*
G01X12908598Y-5753598D01*
G01X12903596Y-5758599D01*
G01X12788595Y-5758599D01*
G01X12783596Y-5753598D01*
G01X12783094Y-5712595D01*
G01X12828095Y-5712595D01*
G01X12828095Y-5667596D01*
G01X12784094Y-5667596D01*
G01X12783596Y-5625600D01*
G01X12788595Y-5620598D01*
G01X12903596Y-5620598D01*
G01X12908598Y-5625600D01*
G37*
G36*
G01X12567603Y-5753600D02*
G01X12567603Y-5625602D01*
G01X12572604Y-5620601D01*
G01X12687605Y-5620601D01*
G01X12692604Y-5625602D01*
G01X12693106Y-5666605D01*
G01X12648105Y-5666605D01*
G01X12648105Y-5711604D01*
G01X12692106Y-5711604D01*
G01X12692604Y-5753600D01*
G01X12687605Y-5758602D01*
G01X12572604Y-5758602D01*
G01X12567603Y-5753600D01*
G37*
G36*
G01X13088396Y-5844898D02*
G01X13088396Y-5889899D01*
G01X13081399Y-5894898D01*
G01X13033398Y-5894898D01*
G01X13028397Y-5889899D01*
G01X13028397Y-5844898D01*
G01X13033398Y-5839899D01*
G01X13081399Y-5839899D01*
G01X13088396Y-5844898D01*
G37*
G36*
G01X13184398Y-5844898D02*
G01X13184398Y-5889899D01*
G01X13179397Y-5894898D01*
G01X13131399Y-5894898D01*
G01X13124398Y-5889899D01*
G01X13124398Y-5844898D01*
G01X13131399Y-5839899D01*
G01X13179397Y-5839899D01*
G01X13184398Y-5844898D01*
G37*
G36*
G01X11699598Y-6914104D02*
G01X11744599Y-6914104D01*
G01X11749598Y-6921101D01*
G01X11749598Y-6969102D01*
G01X11744599Y-6974103D01*
G01X11699598Y-6974103D01*
G01X11694599Y-6969102D01*
G01X11694599Y-6921101D01*
G01X11699598Y-6914104D01*
G37*
G36*
G01X11699598Y-6818102D02*
G01X11744599Y-6818102D01*
G01X11749598Y-6823103D01*
G01X11749598Y-6871101D01*
G01X11744599Y-6878102D01*
G01X11699598Y-6878102D01*
G01X11694599Y-6871101D01*
G01X11694599Y-6823103D01*
G01X11699598Y-6818102D01*
G37*
G36*
G01X11559898Y-6914104D02*
G01X11604899Y-6914104D01*
G01X11609898Y-6921101D01*
G01X11609898Y-6969102D01*
G01X11604899Y-6974103D01*
G01X11559898Y-6974103D01*
G01X11554899Y-6969102D01*
G01X11554899Y-6921101D01*
G01X11559898Y-6914104D01*
G37*
G36*
G01X11559898Y-6818102D02*
G01X11604899Y-6818102D01*
G01X11609898Y-6823103D01*
G01X11609898Y-6871101D01*
G01X11604899Y-6878102D01*
G01X11559898Y-6878102D01*
G01X11554899Y-6871101D01*
G01X11554899Y-6823103D01*
G01X11559898Y-6818102D01*
G37*
G36*
G01X13205102Y-6039896D02*
G01X13160101Y-6039896D01*
G01X13155102Y-6032899D01*
G01X13155102Y-5984898D01*
G01X13160101Y-5979897D01*
G01X13205102Y-5979897D01*
G01X13210101Y-5984898D01*
G01X13210101Y-6032899D01*
G01X13205102Y-6039896D01*
G37*
G36*
G01X13205102Y-6135898D02*
G01X13160101Y-6135898D01*
G01X13155102Y-6130897D01*
G01X13155102Y-6082899D01*
G01X13160101Y-6075898D01*
G01X13205102Y-6075898D01*
G01X13210101Y-6082899D01*
G01X13210101Y-6130897D01*
G01X13205102Y-6135898D01*
G37*
G36*
G01X13355096Y-6238598D02*
G01X13355096Y-6283599D01*
G01X13348099Y-6288598D01*
G01X13300098Y-6288598D01*
G01X13295097Y-6283599D01*
G01X13295097Y-6238598D01*
G01X13300098Y-6233599D01*
G01X13348099Y-6233599D01*
G01X13355096Y-6238598D01*
G37*
G36*
G01X13451098Y-6238598D02*
G01X13451098Y-6283599D01*
G01X13446097Y-6288598D01*
G01X13398099Y-6288598D01*
G01X13391098Y-6283599D01*
G01X13391098Y-6238598D01*
G01X13398099Y-6233599D01*
G01X13446097Y-6233599D01*
G01X13451098Y-6238598D01*
G37*
G36*
G01X13065402Y-6446296D02*
G01X13020401Y-6446296D01*
G01X13015402Y-6439299D01*
G01X13015402Y-6391298D01*
G01X13020401Y-6386297D01*
G01X13065402Y-6386297D01*
G01X13070401Y-6391298D01*
G01X13070401Y-6439299D01*
G01X13065402Y-6446296D01*
G37*
G36*
G01X13065402Y-6542298D02*
G01X13020401Y-6542298D01*
G01X13015402Y-6537297D01*
G01X13015402Y-6489299D01*
G01X13020401Y-6482298D01*
G01X13065402Y-6482298D01*
G01X13070401Y-6489299D01*
G01X13070401Y-6537297D01*
G01X13065402Y-6542298D01*
G37*
G36*
G01X13205102Y-6446296D02*
G01X13160101Y-6446296D01*
G01X13155102Y-6439299D01*
G01X13155102Y-6391298D01*
G01X13160101Y-6386297D01*
G01X13205102Y-6386297D01*
G01X13210101Y-6391298D01*
G01X13210101Y-6439299D01*
G01X13205102Y-6446296D01*
G37*
G36*
G01X13205102Y-6542298D02*
G01X13160101Y-6542298D01*
G01X13155102Y-6537297D01*
G01X13155102Y-6489299D01*
G01X13160101Y-6482298D01*
G01X13205102Y-6482298D01*
G01X13210101Y-6489299D01*
G01X13210101Y-6537297D01*
G01X13205102Y-6542298D01*
G37*
G36*
G01X13111704Y-6804302D02*
G01X13111704Y-6759301D01*
G01X13118701Y-6754302D01*
G01X13166702Y-6754302D01*
G01X13171703Y-6759301D01*
G01X13171703Y-6804302D01*
G01X13166702Y-6809301D01*
G01X13118701Y-6809301D01*
G01X13111704Y-6804302D01*
G37*
G36*
G01X13015702Y-6804302D02*
G01X13015702Y-6759301D01*
G01X13020703Y-6754302D01*
G01X13068701Y-6754302D01*
G01X13075702Y-6759301D01*
G01X13075702Y-6804302D01*
G01X13068701Y-6809301D01*
G01X13020703Y-6809301D01*
G01X13015702Y-6804302D01*
G37*
G36*
G01X13118600Y-6903402D02*
G01X13246598Y-6903402D01*
G01X13251599Y-6908404D01*
G01X13251599Y-7023405D01*
G01X13246598Y-7028404D01*
G01X13205595Y-7028906D01*
G01X13205595Y-6983905D01*
G01X13160596Y-6983905D01*
G01X13160596Y-7027906D01*
G01X13118600Y-7028404D01*
G01X13113598Y-7023405D01*
G01X13113598Y-6908404D01*
G01X13118600Y-6903402D01*
G37*
G36*
G01X13246600Y-7244397D02*
G01X13118602Y-7244397D01*
G01X13113601Y-7239396D01*
G01X13113601Y-7124395D01*
G01X13118602Y-7119396D01*
G01X13159605Y-7118894D01*
G01X13159605Y-7163895D01*
G01X13204604Y-7163895D01*
G01X13204604Y-7119894D01*
G01X13246600Y-7119396D01*
G01X13251602Y-7124395D01*
G01X13251602Y-7239396D01*
G01X13246600Y-7244397D01*
G37*
G36*
G01X12343900Y-5150802D02*
G01X12471898Y-5150802D01*
G01X12476899Y-5155804D01*
G01X12476899Y-5270805D01*
G01X12471898Y-5275804D01*
G01X12430895Y-5276306D01*
G01X12430895Y-5231305D01*
G01X12385896Y-5231305D01*
G01X12385896Y-5275306D01*
G01X12343900Y-5275804D01*
G01X12338898Y-5270805D01*
G01X12338898Y-5155804D01*
G01X12343900Y-5150802D01*
G37*
G36*
G01X12471900Y-5491797D02*
G01X12343902Y-5491797D01*
G01X12338901Y-5486796D01*
G01X12338901Y-5371795D01*
G01X12343902Y-5366796D01*
G01X12384905Y-5366294D01*
G01X12384905Y-5411295D01*
G01X12429904Y-5411295D01*
G01X12429904Y-5367294D01*
G01X12471900Y-5366796D01*
G01X12476902Y-5371795D01*
G01X12476902Y-5486796D01*
G01X12471900Y-5491797D01*
G37*
G36*
G01X12343900Y-7119302D02*
G01X12471898Y-7119302D01*
G01X12476899Y-7124304D01*
G01X12476899Y-7239305D01*
G01X12471898Y-7244304D01*
G01X12430895Y-7244806D01*
G01X12430895Y-7199805D01*
G01X12385896Y-7199805D01*
G01X12385896Y-7243806D01*
G01X12343900Y-7244304D01*
G01X12338898Y-7239305D01*
G01X12338898Y-7124304D01*
G01X12343900Y-7119302D01*
G37*
G36*
G01X12471900Y-7460297D02*
G01X12343902Y-7460297D01*
G01X12338901Y-7455296D01*
G01X12338901Y-7340295D01*
G01X12343902Y-7335296D01*
G01X12384905Y-7334794D01*
G01X12384905Y-7379795D01*
G01X12429904Y-7379795D01*
G01X12429904Y-7335794D01*
G01X12471900Y-7335296D01*
G01X12476902Y-7340295D01*
G01X12476902Y-7455296D01*
G01X12471900Y-7460297D01*
G37*
G36*
G01X11676604Y-6220102D02*
G01X11676604Y-6175101D01*
G01X11683601Y-6170102D01*
G01X11731602Y-6170102D01*
G01X11736603Y-6175101D01*
G01X11736603Y-6220102D01*
G01X11731602Y-6225101D01*
G01X11683601Y-6225101D01*
G01X11676604Y-6220102D01*
G37*
G36*
G01X11580602Y-6220102D02*
G01X11580602Y-6175101D01*
G01X11585603Y-6170102D01*
G01X11633601Y-6170102D01*
G01X11640602Y-6175101D01*
G01X11640602Y-6220102D01*
G01X11633601Y-6225101D01*
G01X11585603Y-6225101D01*
G01X11580602Y-6220102D01*
G37*
G36*
G01X13051541Y-6044400D02*
G01X13034259Y-6044400D01*
G01X13015900Y-6017537D01*
G01X13015900Y-5967890D01*
G01X13019900Y-5963890D01*
G01X13065900Y-5963890D01*
G01X13069900Y-5967890D01*
G01X13069900Y-6017537D01*
G01X13051541Y-6044400D01*
G37*
G36*
G01X13051541Y-6071400D02*
G01X13034259Y-6071400D01*
G01X13015900Y-6098263D01*
G01X13015900Y-6147910D01*
G01X13019900Y-6151910D01*
G01X13065900Y-6151910D01*
G01X13069900Y-6147910D01*
G01X13069900Y-6098263D01*
G01X13051541Y-6071400D01*
G37*
G36*
G01X13119900Y-6269741D02*
G01X13119900Y-6252459D01*
G01X13146763Y-6234100D01*
G01X13196410Y-6234100D01*
G01X13200410Y-6238100D01*
G01X13200410Y-6284100D01*
G01X13196410Y-6288100D01*
G01X13146763Y-6288100D01*
G01X13119900Y-6269741D01*
G37*
G36*
G01X13092900Y-6269741D02*
G01X13092900Y-6252459D01*
G01X13066037Y-6234100D01*
G01X13016390Y-6234100D01*
G01X13012390Y-6238100D01*
G01X13012390Y-6284100D01*
G01X13016390Y-6288100D01*
G01X13066037Y-6288100D01*
G01X13092900Y-6269741D01*
G37*
G36*
G01X12416541Y-5663400D02*
G01X12399259Y-5663400D01*
G01X12380900Y-5636537D01*
G01X12380900Y-5586890D01*
G01X12384900Y-5582890D01*
G01X12430900Y-5582890D01*
G01X12434900Y-5586890D01*
G01X12434900Y-5636537D01*
G01X12416541Y-5663400D01*
G37*
G36*
G01X12416541Y-5690400D02*
G01X12399259Y-5690400D01*
G01X12380900Y-5717263D01*
G01X12380900Y-5766910D01*
G01X12384900Y-5770910D01*
G01X12430900Y-5770910D01*
G01X12434900Y-5766910D01*
G01X12434900Y-5717263D01*
G01X12416541Y-5690400D01*
G37*
G36*
G01X12115000Y-5617459D02*
G01X12115000Y-5634741D01*
G01X12088137Y-5653100D01*
G01X12038490Y-5653100D01*
G01X12034490Y-5649100D01*
G01X12034490Y-5603100D01*
G01X12038490Y-5599100D01*
G01X12088137Y-5599100D01*
G01X12115000Y-5617459D01*
G37*
G36*
G01X12142000Y-5617459D02*
G01X12142000Y-5634741D01*
G01X12168863Y-5653100D01*
G01X12218510Y-5653100D01*
G01X12222510Y-5649100D01*
G01X12222510Y-5603100D01*
G01X12218510Y-5599100D01*
G01X12168863Y-5599100D01*
G01X12142000Y-5617459D01*
G37*
G36*
G01X12421621Y-6909270D02*
G01X12404339Y-6909270D01*
G01X12385980Y-6882407D01*
G01X12385980Y-6832760D01*
G01X12389980Y-6828760D01*
G01X12435980Y-6828760D01*
G01X12439980Y-6832760D01*
G01X12439980Y-6882407D01*
G01X12421621Y-6909270D01*
G37*
G36*
G01X12421621Y-6936270D02*
G01X12404339Y-6936270D01*
G01X12385980Y-6963133D01*
G01X12385980Y-7012780D01*
G01X12389980Y-7016780D01*
G01X12435980Y-7016780D01*
G01X12439980Y-7012780D01*
G01X12439980Y-6963133D01*
G01X12421621Y-6936270D01*
G37*
G36*
G01X12674130Y-7087621D02*
G01X12674130Y-7070339D01*
G01X12700993Y-7051980D01*
G01X12750640Y-7051980D01*
G01X12754640Y-7055980D01*
G01X12754640Y-7101980D01*
G01X12750640Y-7105980D01*
G01X12700993Y-7105980D01*
G01X12674130Y-7087621D01*
G37*
G36*
G01X12647130Y-7087621D02*
G01X12647130Y-7070339D01*
G01X12620267Y-7051980D01*
G01X12570620Y-7051980D01*
G01X12566620Y-7055980D01*
G01X12566620Y-7101980D01*
G01X12570620Y-7105980D01*
G01X12620267Y-7105980D01*
G01X12647130Y-7087621D01*
G37*
G36*
G01X12167400Y-6955541D02*
G01X12167400Y-6938259D01*
G01X12194263Y-6919900D01*
G01X12243910Y-6919900D01*
G01X12247910Y-6923900D01*
G01X12247910Y-6969900D01*
G01X12243910Y-6973900D01*
G01X12194263Y-6973900D01*
G01X12167400Y-6955541D01*
G37*
G36*
G01X12140400Y-6955541D02*
G01X12140400Y-6938259D01*
G01X12113537Y-6919900D01*
G01X12063890Y-6919900D01*
G01X12059890Y-6923900D01*
G01X12059890Y-6969900D01*
G01X12063890Y-6973900D01*
G01X12113537Y-6973900D01*
G01X12140400Y-6955541D01*
G37*
G36*
G01X11684800Y-6472941D02*
G01X11684800Y-6455659D01*
G01X11711663Y-6437300D01*
G01X11761310Y-6437300D01*
G01X11765310Y-6441300D01*
G01X11765310Y-6487300D01*
G01X11761310Y-6491300D01*
G01X11711663Y-6491300D01*
G01X11684800Y-6472941D01*
G37*
G36*
G01X11657800Y-6472941D02*
G01X11657800Y-6455659D01*
G01X11630937Y-6437300D01*
G01X11581290Y-6437300D01*
G01X11577290Y-6441300D01*
G01X11577290Y-6487300D01*
G01X11581290Y-6491300D01*
G01X11630937Y-6491300D01*
G01X11657800Y-6472941D01*
G37*
G36*
G01X11684800Y-6599941D02*
G01X11684800Y-6582659D01*
G01X11711663Y-6564300D01*
G01X11761310Y-6564300D01*
G01X11765310Y-6568300D01*
G01X11765310Y-6614300D01*
G01X11761310Y-6618300D01*
G01X11711663Y-6618300D01*
G01X11684800Y-6599941D01*
G37*
G36*
G01X11657800Y-6599941D02*
G01X11657800Y-6582659D01*
G01X11630937Y-6564300D01*
G01X11581290Y-6564300D01*
G01X11577290Y-6568300D01*
G01X11577290Y-6614300D01*
G01X11581290Y-6618300D01*
G01X11630937Y-6618300D01*
G01X11657800Y-6599941D01*
G37*
G36*
G01X11367300Y-6487300D02*
G01X11367300Y-6441300D01*
G01X11371301Y-6437300D01*
G01X11421364Y-6437300D01*
G01X11425365Y-6441300D01*
G01X11425365Y-6487300D01*
G01X11421364Y-6491300D01*
G01X11371301Y-6491300D01*
G01X11367300Y-6487300D01*
G37*
G36*
G01X11340300Y-6487300D02*
G01X11340300Y-6441300D01*
G01X11336299Y-6437300D01*
G01X11286236Y-6437300D01*
G01X11282236Y-6441300D01*
G01X11282236Y-6487300D01*
G01X11286236Y-6491300D01*
G01X11336299Y-6491300D01*
G01X11340300Y-6487300D01*
G37*
G36*
G01X11367300Y-6614300D02*
G01X11367300Y-6568300D01*
G01X11371301Y-6564300D01*
G01X11421364Y-6564300D01*
G01X11425365Y-6568300D01*
G01X11425365Y-6614300D01*
G01X11421364Y-6618300D01*
G01X11371301Y-6618300D01*
G01X11367300Y-6614300D01*
G37*
G36*
G01X11340300Y-6614300D02*
G01X11340300Y-6568300D01*
G01X11336299Y-6564300D01*
G01X11286236Y-6564300D01*
G01X11282236Y-6568300D01*
G01X11282236Y-6614300D01*
G01X11286236Y-6618300D01*
G01X11336299Y-6618300D01*
G01X11340300Y-6614300D01*
G37*
G36*
G01X13080200Y-6631800D02*
G01X13080200Y-6677800D01*
G01X13076199Y-6681800D01*
G01X13026136Y-6681800D01*
G01X13022136Y-6677800D01*
G01X13022136Y-6631800D01*
G01X13026136Y-6627800D01*
G01X13076199Y-6627800D01*
G01X13080200Y-6631800D01*
G37*
G36*
G01X13107200Y-6631800D02*
G01X13107200Y-6677800D01*
G01X13111201Y-6681800D01*
G01X13161264Y-6681800D01*
G01X13165265Y-6677800D01*
G01X13165265Y-6631800D01*
G01X13161264Y-6627800D01*
G01X13111201Y-6627800D01*
G01X13107200Y-6631800D01*
G37*
G36*
G01X13308800Y-6631800D02*
G01X13308800Y-6677800D01*
G01X13304799Y-6681800D01*
G01X13254736Y-6681800D01*
G01X13250736Y-6677800D01*
G01X13250736Y-6631800D01*
G01X13254736Y-6627800D01*
G01X13304799Y-6627800D01*
G01X13308800Y-6631800D01*
G37*
G36*
G01X13335800Y-6631800D02*
G01X13335800Y-6677800D01*
G01X13339801Y-6681800D01*
G01X13389864Y-6681800D01*
G01X13393865Y-6677800D01*
G01X13393865Y-6631800D01*
G01X13389864Y-6627800D01*
G01X13339801Y-6627800D01*
G01X13335800Y-6631800D01*
G37*
G36*
G01X11913400Y-6969900D02*
G01X11913400Y-6923900D01*
G01X11917401Y-6919900D01*
G01X11967464Y-6919900D01*
G01X11971465Y-6923900D01*
G01X11971465Y-6969900D01*
G01X11967464Y-6973900D01*
G01X11917401Y-6973900D01*
G01X11913400Y-6969900D01*
G37*
G36*
G01X11886400Y-6969900D02*
G01X11886400Y-6923900D01*
G01X11882399Y-6919900D01*
G01X11832336Y-6919900D01*
G01X11828336Y-6923900D01*
G01X11828336Y-6969900D01*
G01X11832336Y-6973900D01*
G01X11882399Y-6973900D01*
G01X11886400Y-6969900D01*
G37*

G04 Pad Start*
G54D10*
G01X11307293Y-5759196D03*
G01X11307293Y-5569204D03*
G01X11527307Y-5759196D03*
G01X11527307Y-5569204D03*
G01X11527307Y-5664200D03*
G54D11*
G01X13140411Y-5243703D03*
G01X13140411Y-5473700D03*
G01X13140411Y-5703697D03*
G54D12*
G01X13707389Y-5473700D03*
G54D13*
G01X12638100Y-5689600D03*
G54D14*
G01X13182600Y-7173900D03*
G54D15*
G01X12100000Y-6069500D03*
G01X12100000Y-6169500D03*
G01X12100000Y-6269500D03*
G01X12100000Y-6369500D03*
G01X12100000Y-6469500D03*
G01X12100000Y-6569500D03*
G54D16*
G01X12213000Y-6580000D03*
G01X12313000Y-6580000D03*
G01X12413000Y-6580000D03*
G01X12513000Y-6580000D03*
G54D15*
G01X12625000Y-6569500D03*
G01X12625000Y-6469500D03*
G01X12625000Y-6369500D03*
G01X12625000Y-6269500D03*
G01X12625000Y-6169500D03*
G01X12625000Y-6069500D03*
G54D16*
G01X12513000Y-6060000D03*
G01X12413000Y-6060000D03*
G01X12313000Y-6060000D03*
G01X12213000Y-6060000D03*
G54D17*
G01X12363000Y-6319500D03*
G54D19*
G01X12662878Y-4815000D03*
G01X12152897Y-4815000D03*
G01X12407887Y-4815000D03*
G01X12152922Y-7800000D03*
G01X12662903Y-7800000D03*
G01X12407913Y-7800000D03*
G04 Pad End*

M02*

