G04 Layer: TopLayer*
G04 EasyEDA Pro v2.2.45.4, 2025-12-28 23:20:17*
G04 Gerber Generator version 0.3*
G04 Scale: 100 percent, Rotated: No, Reflected: No*
G04 Dimensions in millimeters*
G04 Leading zeros omitted, absolute positions, 4 integers and 5 decimals*
G04 Generated by one-click*
%FSLAX45Y45*%
%MOMM*%
%ADD10C,0.2032*%
%ADD11C,0.254*%
%ADD12C,0.5*%
%ADD13C,1.0*%
%ADD14R,0.63647X0.54*%
%ADD15R,0.54X0.63647*%
%ADD16R,0.5779X0.54*%
%ADD17R,0.56566X0.54*%
%ADD18R,0.54X0.56566*%
%ADD19R,1.0X0.6*%
%ADD20R,2.47X0.98001*%
%ADD21R,2.47X3.59999*%
%ADD22R,0.54X0.79009*%
%ADD23R,0.79009X0.54*%
%ADD24R,1.41X1.35001*%
%ADD25R,1.35001X1.41*%
%ADD26R,1.0X0.55*%
%ADD27R,0.55X1.0*%
%ADD28R,3.4X3.4*%
%ADD29R,1.5X4.5*%
%ADD30C,0.61*%
%ADD31C,1.8*%
%ADD32C,5.0*%
%ADD33C,0.508*%
%ADD34C,0.75*%
G75*


G04 Copper Start*
G36*
G01X12077901Y-4604515D02*
G01X12297073Y-4604515D01*
G01X12297073Y-5040000D01*
G01X12298826Y-5051067D01*
G01X12303913Y-5061051D01*
G01X12311836Y-5068974D01*
G01X12321820Y-5074061D01*
G01X12332887Y-5075814D01*
G01X12334586Y-5075814D01*
G01X12334586Y-5115461D01*
G01X12324996Y-5118468D01*
G01X12316619Y-5124020D01*
G01X12310115Y-5131682D01*
G01X12305996Y-5140849D01*
G01X12304586Y-5150800D01*
G01X12304586Y-5291800D01*
G01X12306433Y-5303156D01*
G01X12311786Y-5313339D01*
G01X12320091Y-5321300D01*
G01X12311786Y-5329261D01*
G01X12306433Y-5339444D01*
G01X12304586Y-5350800D01*
G01X12304586Y-5491800D01*
G01X12306338Y-5502867D01*
G01X12311425Y-5512851D01*
G01X12319349Y-5520774D01*
G01X12329332Y-5525861D01*
G01X12340400Y-5527614D01*
G01X12346686Y-5527614D01*
G01X12346686Y-5564886D01*
G01X12233808Y-5564886D01*
G01X12233112Y-5564890D01*
G01X12222513Y-5563286D01*
G01X12143504Y-5563286D01*
G01X12135823Y-5564119D01*
G01X12128500Y-5566580D01*
G01X12121177Y-5564119D01*
G01X12113496Y-5563286D01*
G01X12034487Y-5563286D01*
G01X12023420Y-5565039D01*
G01X12013436Y-5570126D01*
G01X12005513Y-5578049D01*
G01X12000426Y-5588033D01*
G01X11998673Y-5599100D01*
G01X11998673Y-5653100D01*
G01X12000426Y-5664167D01*
G01X12005513Y-5674151D01*
G01X12013436Y-5682074D01*
G01X12023420Y-5687161D01*
G01X12034487Y-5688914D01*
G01X12113496Y-5688914D01*
G01X12121177Y-5688081D01*
G01X12128500Y-5685620D01*
G01X12135823Y-5688081D01*
G01X12143504Y-5688914D01*
G01X12222513Y-5688914D01*
G01X12233112Y-5687310D01*
G01X12233808Y-5687314D01*
G01X12345381Y-5687314D01*
G01X12345086Y-5691904D01*
G01X12345086Y-5770913D01*
G01X12346802Y-5781866D01*
G01X12351786Y-5791770D01*
G01X12351786Y-5997917D01*
G01X12350215Y-6003868D01*
G01X12349686Y-6010000D01*
G01X12349686Y-6110000D01*
G01X12351439Y-6121067D01*
G01X12356526Y-6131051D01*
G01X12364449Y-6138974D01*
G01X12374433Y-6144061D01*
G01X12385500Y-6145814D01*
G01X12440500Y-6145814D01*
G01X12451567Y-6144061D01*
G01X12461551Y-6138974D01*
G01X12469474Y-6131051D01*
G01X12474561Y-6121067D01*
G01X12476314Y-6110000D01*
G01X12476314Y-6010000D01*
G01X12475785Y-6003868D01*
G01X12474214Y-5997917D01*
G01X12474214Y-5736508D01*
G01X12473333Y-5726159D01*
G01X12470714Y-5716107D01*
G01X12470714Y-5691904D01*
G01X12469881Y-5684223D01*
G01X12467420Y-5676900D01*
G01X12469881Y-5669577D01*
G01X12470714Y-5661896D01*
G01X12470714Y-5622099D01*
G01X12531786Y-5622099D01*
G01X12531786Y-5757100D01*
G01X12533539Y-5768168D01*
G01X12538626Y-5778151D01*
G01X12546549Y-5786075D01*
G01X12556533Y-5791162D01*
G01X12567600Y-5792914D01*
G01X12708600Y-5792914D01*
G01X12719956Y-5791067D01*
G01X12730139Y-5785714D01*
G01X12738100Y-5777409D01*
G01X12746061Y-5785714D01*
G01X12756244Y-5791067D01*
G01X12767600Y-5792914D01*
G01X12802286Y-5792914D01*
G01X12802286Y-5815000D01*
G01X12803462Y-5826942D01*
G01X12806945Y-5838425D01*
G01X12812602Y-5849008D01*
G01X12820215Y-5858285D01*
G01X12872615Y-5910685D01*
G01X12881891Y-5918298D01*
G01X12892474Y-5923954D01*
G01X12903958Y-5927438D01*
G01X12915900Y-5928614D01*
G01X12990678Y-5928614D01*
G01X12990678Y-5933186D01*
G01X12915900Y-5933186D01*
G01X12903958Y-5934362D01*
G01X12892474Y-5937846D01*
G01X12881891Y-5943502D01*
G01X12872615Y-5951115D01*
G01X12815444Y-6008286D01*
G01X12687083Y-6008286D01*
G01X12681132Y-6006715D01*
G01X12675000Y-6006186D01*
G01X12575000Y-6006186D01*
G01X12563933Y-6007939D01*
G01X12553949Y-6013026D01*
G01X12546026Y-6020949D01*
G01X12540939Y-6030933D01*
G01X12539186Y-6042000D01*
G01X12539186Y-6097000D01*
G01X12540100Y-6105040D01*
G01X12542796Y-6112670D01*
G01X12547136Y-6119500D01*
G01X12542796Y-6126330D01*
G01X12540100Y-6133960D01*
G01X12539186Y-6142000D01*
G01X12539186Y-6197000D01*
G01X12540100Y-6205040D01*
G01X12542796Y-6212670D01*
G01X12547136Y-6219500D01*
G01X12542796Y-6226330D01*
G01X12540100Y-6233960D01*
G01X12539186Y-6242000D01*
G01X12539186Y-6297000D01*
G01X12540100Y-6305040D01*
G01X12542796Y-6312670D01*
G01X12547136Y-6319500D01*
G01X12542796Y-6326330D01*
G01X12540100Y-6333960D01*
G01X12539186Y-6342000D01*
G01X12539186Y-6397000D01*
G01X12540100Y-6405040D01*
G01X12542796Y-6412670D01*
G01X12547136Y-6419500D01*
G01X12542796Y-6426330D01*
G01X12540100Y-6433960D01*
G01X12539186Y-6442000D01*
G01X12539186Y-6497000D01*
G01X12540100Y-6505040D01*
G01X12542796Y-6512670D01*
G01X12547136Y-6519500D01*
G01X12542796Y-6526330D01*
G01X12540100Y-6533960D01*
G01X12539186Y-6542000D01*
G01X12539186Y-6597000D01*
G01X12540830Y-6607728D01*
G01X12545613Y-6617470D01*
G01X12553093Y-6625333D01*
G01X12562586Y-6630594D01*
G01X12562586Y-6654697D01*
G01X12558439Y-6668996D01*
G01X12557587Y-6683860D01*
G01X12560072Y-6698539D01*
G01X12565770Y-6712294D01*
G01X12574392Y-6724432D01*
G01X12585505Y-6734339D01*
G01X12598548Y-6741518D01*
G01X12868906Y-7011876D01*
G01X12878182Y-7019488D01*
G01X12888765Y-7025145D01*
G01X12900248Y-7028629D01*
G01X12912191Y-7029805D01*
G01X12930261Y-7029805D01*
G01X12929286Y-7038104D01*
G01X12929286Y-7117113D01*
G01X12931039Y-7128180D01*
G01X12936126Y-7138164D01*
G01X12944049Y-7146087D01*
G01X12954033Y-7151174D01*
G01X12965100Y-7152927D01*
G01X13019100Y-7152927D01*
G01X13030167Y-7151174D01*
G01X13040151Y-7146087D01*
G01X13048074Y-7138164D01*
G01X13053161Y-7128180D01*
G01X13054914Y-7117113D01*
G01X13054914Y-7038104D01*
G01X13053940Y-7029805D01*
G01X13079286Y-7029805D01*
G01X13079286Y-7044400D01*
G01X13081133Y-7055756D01*
G01X13086486Y-7065939D01*
G01X13094791Y-7073900D01*
G01X13086486Y-7081861D01*
G01X13081133Y-7092044D01*
G01X13079286Y-7103400D01*
G01X13079286Y-7244400D01*
G01X13081038Y-7255467D01*
G01X13086125Y-7265451D01*
G01X13094049Y-7273374D01*
G01X13104032Y-7278461D01*
G01X13115100Y-7280214D01*
G01X13250101Y-7280214D01*
G01X13261168Y-7278461D01*
G01X13271151Y-7273374D01*
G01X13279075Y-7265451D01*
G01X13284162Y-7255467D01*
G01X13285915Y-7244400D01*
G01X13285915Y-7103400D01*
G01X13284067Y-7092044D01*
G01X13278714Y-7081861D01*
G01X13270409Y-7073900D01*
G01X13278714Y-7065939D01*
G01X13284067Y-7055756D01*
G01X13285915Y-7044400D01*
G01X13285915Y-7035114D01*
G01X13498500Y-7035114D01*
G01X13510442Y-7033938D01*
G01X13521925Y-7030455D01*
G01X13532508Y-7024798D01*
G01X13541785Y-7017185D01*
G01X13721185Y-6837785D01*
G01X13728798Y-6828509D01*
G01X13734454Y-6817926D01*
G01X13737938Y-6806442D01*
G01X13739114Y-6794500D01*
G01X13739114Y-6142251D01*
G01X13755956Y-6130935D01*
G01X13770761Y-6117059D01*
G01X13783142Y-6100984D01*
G01X13792778Y-6083128D01*
G01X13799419Y-6063955D01*
G01X13802891Y-6043964D01*
G01X13803104Y-6023675D01*
G01X13800053Y-6003615D01*
G01X13793818Y-5984307D01*
G01X13784559Y-5966251D01*
G01X13772519Y-5949920D01*
G01X13758010Y-5935735D01*
G01X13741410Y-5924068D01*
G01X13723150Y-5915221D01*
G01X13703705Y-5909424D01*
G01X13683581Y-5906828D01*
G01X13663302Y-5907501D01*
G01X13643395Y-5911425D01*
G01X13392382Y-5660412D01*
G01X13383106Y-5652799D01*
G01X13372523Y-5647143D01*
G01X13361039Y-5643659D01*
G01X13349097Y-5642483D01*
G01X13297578Y-5642483D01*
G01X13292341Y-5632917D01*
G01X13284468Y-5625370D01*
G01X13274689Y-5620543D01*
G01X13263910Y-5618883D01*
G01X13016911Y-5618883D01*
G01X13005844Y-5620635D01*
G01X12995860Y-5625722D01*
G01X12987937Y-5633646D01*
G01X12982850Y-5643629D01*
G01X12981097Y-5654697D01*
G01X12981097Y-5752697D01*
G01X12982850Y-5763765D01*
G01X12987937Y-5773748D01*
G01X12995860Y-5781672D01*
G01X13005844Y-5786759D01*
G01X13016911Y-5788511D01*
G01X13263910Y-5788511D01*
G01X13274689Y-5786851D01*
G01X13284468Y-5782024D01*
G01X13292341Y-5774477D01*
G01X13297578Y-5764911D01*
G01X13323741Y-5764911D01*
G01X13556658Y-5997828D01*
G01X13552562Y-6018548D01*
G01X13551990Y-6039661D01*
G01X13554958Y-6060573D01*
G01X13561382Y-6080693D01*
G01X13571082Y-6099456D01*
G01X13583783Y-6116331D01*
G01X13599129Y-6130844D01*
G01X13616686Y-6142585D01*
G01X13616686Y-6769144D01*
G01X13473144Y-6912686D01*
G01X13285915Y-6912686D01*
G01X13285915Y-6903400D01*
G01X13284162Y-6892333D01*
G01X13279075Y-6882349D01*
G01X13271151Y-6874426D01*
G01X13261168Y-6869339D01*
G01X13250101Y-6867586D01*
G01X13115100Y-6867586D01*
G01X13104032Y-6869339D01*
G01X13094049Y-6874426D01*
G01X13086125Y-6882349D01*
G01X13081038Y-6892333D01*
G01X13079286Y-6903400D01*
G01X13079286Y-6907377D01*
G01X13047584Y-6907377D01*
G01X13039706Y-6899794D01*
G01X13029907Y-6894942D01*
G01X13019100Y-6893273D01*
G01X12965100Y-6893273D01*
G01X12954504Y-6894876D01*
G01X12944858Y-6899542D01*
G01X12937023Y-6906853D01*
G01X12685118Y-6654948D01*
G01X12685014Y-6654697D01*
G01X12685014Y-6631385D01*
G01X12695377Y-6626452D01*
G01X12703647Y-6618494D01*
G01X12708975Y-6608329D01*
G01X12710814Y-6597000D01*
G01X12710814Y-6542000D01*
G01X12708989Y-6530714D01*
G01X12730644Y-6530714D01*
G01X12898015Y-6698085D01*
G01X12907291Y-6705698D01*
G01X12917874Y-6711354D01*
G01X12929358Y-6714838D01*
G01X12941300Y-6716014D01*
G01X13011550Y-6716014D01*
G01X13022136Y-6717614D01*
G01X13075768Y-6717614D01*
G01X13075768Y-6718986D01*
G01X12999687Y-6718986D01*
G01X12988620Y-6720739D01*
G01X12978636Y-6725826D01*
G01X12970713Y-6733749D01*
G01X12965626Y-6743733D01*
G01X12963873Y-6754800D01*
G01X12963873Y-6808800D01*
G01X12965626Y-6819867D01*
G01X12970713Y-6829851D01*
G01X12978636Y-6837774D01*
G01X12988620Y-6842861D01*
G01X12999687Y-6844614D01*
G01X13078696Y-6844614D01*
G01X13086377Y-6843781D01*
G01X13093700Y-6841320D01*
G01X13101023Y-6843781D01*
G01X13108704Y-6844614D01*
G01X13187713Y-6844614D01*
G01X13198780Y-6842861D01*
G01X13208764Y-6837774D01*
G01X13216687Y-6829851D01*
G01X13221774Y-6819867D01*
G01X13223527Y-6808800D01*
G01X13223527Y-6754800D01*
G01X13221726Y-6743587D01*
G01X13216506Y-6733502D01*
G01X13208390Y-6725558D01*
G01X13198196Y-6720554D01*
G01X13198196Y-6716014D01*
G01X13240150Y-6716014D01*
G01X13250736Y-6717614D01*
G01X13307301Y-6717614D01*
G01X13314979Y-6716782D01*
G01X13322300Y-6714322D01*
G01X13329621Y-6716782D01*
G01X13337299Y-6717614D01*
G01X13393865Y-6717614D01*
G01X13404932Y-6715861D01*
G01X13414915Y-6710774D01*
G01X13422839Y-6702851D01*
G01X13427926Y-6692867D01*
G01X13429679Y-6681800D01*
G01X13429679Y-6627800D01*
G01X13427926Y-6616733D01*
G01X13422839Y-6606749D01*
G01X13414915Y-6598826D01*
G01X13404932Y-6593739D01*
G01X13393865Y-6591986D01*
G01X13337299Y-6591986D01*
G01X13329621Y-6592818D01*
G01X13322300Y-6595278D01*
G01X13314979Y-6592818D01*
G01X13307301Y-6591986D01*
G01X13250736Y-6591986D01*
G01X13240150Y-6593586D01*
G01X13215802Y-6593586D01*
G01X13225287Y-6590509D01*
G01X13233557Y-6584935D01*
G01X13239968Y-6577298D01*
G01X13244026Y-6568188D01*
G01X13245414Y-6558313D01*
G01X13245414Y-6479304D01*
G01X13244581Y-6471623D01*
G01X13242120Y-6464300D01*
G01X13244581Y-6456977D01*
G01X13245414Y-6449296D01*
G01X13245414Y-6370287D01*
G01X13243661Y-6359220D01*
G01X13238574Y-6349236D01*
G01X13230651Y-6341313D01*
G01X13220667Y-6336226D01*
G01X13209600Y-6334473D01*
G01X13155600Y-6334473D01*
G01X13146357Y-6335686D01*
G01X13137740Y-6339244D01*
G01X13130333Y-6344905D01*
G01X13124638Y-6352286D01*
G01X13100862Y-6352286D01*
G01X13095167Y-6344905D01*
G01X13087760Y-6339244D01*
G01X13079143Y-6335686D01*
G01X13069900Y-6334473D01*
G01X13015900Y-6334473D01*
G01X13005304Y-6336076D01*
G01X12995658Y-6340742D01*
G01X12987823Y-6348053D01*
G01X12970484Y-6330714D01*
G01X13043492Y-6330714D01*
G01X13057918Y-6328990D01*
G01X13071532Y-6323914D01*
G01X13091396Y-6323914D01*
G01X13099077Y-6323081D01*
G01X13106400Y-6320620D01*
G01X13113723Y-6323081D01*
G01X13121404Y-6323914D01*
G01X13200413Y-6323914D01*
G01X13210999Y-6322314D01*
G01X13268501Y-6322314D01*
G01X13279087Y-6323914D01*
G01X13358096Y-6323914D01*
G01X13365777Y-6323081D01*
G01X13373100Y-6320620D01*
G01X13380423Y-6323081D01*
G01X13388104Y-6323914D01*
G01X13467113Y-6323914D01*
G01X13478180Y-6322161D01*
G01X13488164Y-6317074D01*
G01X13496087Y-6309151D01*
G01X13501174Y-6299167D01*
G01X13502927Y-6288100D01*
G01X13502927Y-6234100D01*
G01X13501174Y-6223033D01*
G01X13496087Y-6213049D01*
G01X13488164Y-6205126D01*
G01X13478180Y-6200039D01*
G01X13467113Y-6198286D01*
G01X13388104Y-6198286D01*
G01X13380423Y-6199119D01*
G01X13373100Y-6201580D01*
G01X13365777Y-6199119D01*
G01X13358096Y-6198286D01*
G01X13279087Y-6198286D01*
G01X13268501Y-6199886D01*
G01X13210999Y-6199886D01*
G01X13200413Y-6198286D01*
G01X13121404Y-6198286D01*
G01X13113723Y-6199119D01*
G01X13106400Y-6201580D01*
G01X13099077Y-6199119D01*
G01X13091396Y-6198286D01*
G01X13012387Y-6198286D01*
G01X13003343Y-6199447D01*
G01X12994885Y-6202854D01*
G01X12987562Y-6208286D01*
G01X12949975Y-6208286D01*
G01X12975647Y-6182614D01*
G01X12997458Y-6182614D01*
G01X13006331Y-6186425D01*
G01X13015900Y-6187727D01*
G01X13069900Y-6187727D01*
G01X13080967Y-6185974D01*
G01X13090951Y-6180887D01*
G01X13098874Y-6172964D01*
G01X13103961Y-6162980D01*
G01X13105714Y-6151913D01*
G01X13105714Y-6072904D01*
G01X13104740Y-6064606D01*
G01X13120760Y-6064606D01*
G01X13119786Y-6072904D01*
G01X13119786Y-6151913D01*
G01X13121539Y-6162980D01*
G01X13126626Y-6172964D01*
G01X13134549Y-6180887D01*
G01X13144533Y-6185974D01*
G01X13155600Y-6187727D01*
G01X13209600Y-6187727D01*
G01X13220667Y-6185974D01*
G01X13230651Y-6180887D01*
G01X13238574Y-6172964D01*
G01X13243661Y-6162980D01*
G01X13245414Y-6151913D01*
G01X13245414Y-6072904D01*
G01X13244581Y-6065223D01*
G01X13242120Y-6057900D01*
G01X13244581Y-6050577D01*
G01X13245414Y-6042896D01*
G01X13245414Y-5963887D01*
G01X13243826Y-5953339D01*
G01X13239201Y-5943727D01*
G01X13231951Y-5935903D01*
G01X13222718Y-5930562D01*
G01X13212321Y-5928176D01*
G01X13221999Y-5922978D01*
G01X13229646Y-5915090D01*
G01X13234542Y-5905256D01*
G01X13236227Y-5894400D01*
G01X13236227Y-5840400D01*
G01X13234474Y-5829333D01*
G01X13229387Y-5819349D01*
G01X13221464Y-5811426D01*
G01X13211480Y-5806339D01*
G01X13200413Y-5804586D01*
G01X13121404Y-5804586D01*
G01X13113723Y-5805419D01*
G01X13106400Y-5807880D01*
G01X13099077Y-5805419D01*
G01X13091396Y-5804586D01*
G01X13012387Y-5804586D01*
G01X13001801Y-5806186D01*
G01X12941256Y-5806186D01*
G01X12924714Y-5789644D01*
G01X12924714Y-5789085D01*
G01X12932821Y-5783482D01*
G01X12939094Y-5775883D01*
G01X12943058Y-5766861D01*
G01X12944414Y-5757100D01*
G01X12944414Y-5622099D01*
G01X12943179Y-5612776D01*
G01X12939560Y-5604096D01*
G01X12933806Y-5596657D01*
G01X12926314Y-5590973D01*
G01X12926314Y-5537937D01*
G01X12984499Y-5537937D01*
G01X12990039Y-5546377D01*
G01X12997715Y-5552935D01*
G01X13006916Y-5557091D01*
G01X13016911Y-5558514D01*
G01X13263910Y-5558514D01*
G01X13273906Y-5557091D01*
G01X13283106Y-5552935D01*
G01X13290782Y-5546377D01*
G01X13296322Y-5537937D01*
G01X13548076Y-5537937D01*
G01X13548076Y-5653700D01*
G01X13549828Y-5664767D01*
G01X13554915Y-5674751D01*
G01X13562839Y-5682674D01*
G01X13572822Y-5687761D01*
G01X13583890Y-5689514D01*
G01X13830889Y-5689514D01*
G01X13841956Y-5687761D01*
G01X13851940Y-5682674D01*
G01X13859863Y-5674751D01*
G01X13864950Y-5664767D01*
G01X13866703Y-5653700D01*
G01X13866703Y-5293700D01*
G01X13864950Y-5282633D01*
G01X13859863Y-5272649D01*
G01X13851940Y-5264726D01*
G01X13841956Y-5259639D01*
G01X13830889Y-5257886D01*
G01X13583890Y-5257886D01*
G01X13572822Y-5259639D01*
G01X13562839Y-5264726D01*
G01X13554915Y-5272649D01*
G01X13549828Y-5282633D01*
G01X13548076Y-5293700D01*
G01X13548076Y-5415509D01*
G01X13298525Y-5415509D01*
G01X13293722Y-5404853D01*
G01X13285745Y-5396311D01*
G01X13275442Y-5390793D01*
G01X13263910Y-5388886D01*
G01X13016911Y-5388886D01*
G01X13005379Y-5390793D01*
G01X12995076Y-5396311D01*
G01X12987099Y-5404853D01*
G01X12982296Y-5415509D01*
G01X12924800Y-5415509D01*
G01X12927127Y-5408369D01*
G01X12927914Y-5400901D01*
G01X12927914Y-5337254D01*
G01X12927325Y-5330786D01*
G01X12925578Y-5324531D01*
G01X12925578Y-5292703D01*
G01X12981097Y-5292703D01*
G01X12982850Y-5303771D01*
G01X12987937Y-5313754D01*
G01X12995860Y-5321678D01*
G01X13005844Y-5326765D01*
G01X13016911Y-5328517D01*
G01X13263910Y-5328517D01*
G01X13274978Y-5326765D01*
G01X13284961Y-5321678D01*
G01X13292885Y-5313754D01*
G01X13297972Y-5303771D01*
G01X13299724Y-5292703D01*
G01X13299724Y-5194703D01*
G01X13299724Y-5194703D01*
G01X13297972Y-5183635D01*
G01X13292885Y-5173652D01*
G01X13284961Y-5165728D01*
G01X13274978Y-5160641D01*
G01X13263910Y-5158889D01*
G01X13016911Y-5158889D01*
G01X13005844Y-5160641D01*
G01X12995860Y-5165728D01*
G01X12987937Y-5173652D01*
G01X12982850Y-5183635D01*
G01X12981097Y-5194703D01*
G01X12981097Y-5292703D01*
G01X12925578Y-5292703D01*
G01X12925578Y-5270214D01*
G01X12930373Y-5263159D01*
G01X12933363Y-5255170D01*
G01X12934379Y-5246700D01*
G01X12934379Y-5192700D01*
G01X12932626Y-5181633D01*
G01X12927539Y-5171649D01*
G01X12919615Y-5163726D01*
G01X12909632Y-5158639D01*
G01X12898565Y-5156886D01*
G01X12841999Y-5156886D01*
G01X12834321Y-5157718D01*
G01X12827000Y-5160178D01*
G01X12819679Y-5157718D01*
G01X12812001Y-5156886D01*
G01X12755436Y-5156886D01*
G01X12744368Y-5158639D01*
G01X12734385Y-5163726D01*
G01X12726461Y-5171649D01*
G01X12721374Y-5181633D01*
G01X12719622Y-5192700D01*
G01X12719622Y-5246700D01*
G01X12721374Y-5257767D01*
G01X12726461Y-5267751D01*
G01X12734385Y-5275674D01*
G01X12744368Y-5280761D01*
G01X12755436Y-5282514D01*
G01X12803150Y-5282514D01*
G01X12803150Y-5329433D01*
G01X12802286Y-5337254D01*
G01X12802286Y-5400901D01*
G01X12804227Y-5412531D01*
G01X12809839Y-5422900D01*
G01X12804227Y-5433269D01*
G01X12802286Y-5444899D01*
G01X12802286Y-5444899D01*
G01X12802286Y-5508546D01*
G01X12803886Y-5519132D01*
G01X12803886Y-5586285D01*
G01X12767600Y-5586285D01*
G01X12756244Y-5588133D01*
G01X12746061Y-5593486D01*
G01X12738100Y-5601791D01*
G01X12730139Y-5593486D01*
G01X12719956Y-5588133D01*
G01X12708600Y-5586285D01*
G01X12567600Y-5586285D01*
G01X12556533Y-5588038D01*
G01X12546549Y-5593125D01*
G01X12538626Y-5601049D01*
G01X12533539Y-5611032D01*
G01X12531786Y-5622099D01*
G01X12470714Y-5622099D01*
G01X12470714Y-5582887D01*
G01X12469114Y-5572301D01*
G01X12469114Y-5527614D01*
G01X12475401Y-5527614D01*
G01X12486468Y-5525861D01*
G01X12496451Y-5520774D01*
G01X12504375Y-5512851D01*
G01X12509462Y-5502867D01*
G01X12511215Y-5491800D01*
G01X12511215Y-5350800D01*
G01X12509367Y-5339444D01*
G01X12504014Y-5329261D01*
G01X12495709Y-5321300D01*
G01X12504014Y-5313339D01*
G01X12509367Y-5303156D01*
G01X12511215Y-5291800D01*
G01X12511215Y-5150800D01*
G01X12509804Y-5140849D01*
G01X12505685Y-5131682D01*
G01X12499181Y-5124020D01*
G01X12490804Y-5118468D01*
G01X12481214Y-5115461D01*
G01X12481214Y-5075814D01*
G01X12482887Y-5075814D01*
G01X12493954Y-5074061D01*
G01X12503938Y-5068974D01*
G01X12511861Y-5061051D01*
G01X12516948Y-5051067D01*
G01X12518701Y-5040000D01*
G01X12518701Y-4604515D01*
G01X12737899Y-4604515D01*
G01X12746660Y-4603426D01*
G01X12754889Y-4600228D01*
G01X12762086Y-4595114D01*
G01X13873486Y-4595114D01*
G01X13873486Y-8023486D01*
G01X12754729Y-8023486D01*
G01X12746572Y-8020351D01*
G01X12737899Y-8019285D01*
G01X12518727Y-8019285D01*
G01X12518727Y-7575000D01*
G01X12516974Y-7563933D01*
G01X12511887Y-7553949D01*
G01X12503964Y-7546026D01*
G01X12493980Y-7540939D01*
G01X12482913Y-7539186D01*
G01X12481214Y-7539186D01*
G01X12481214Y-7495639D01*
G01X12490804Y-7492632D01*
G01X12499181Y-7487080D01*
G01X12505685Y-7479418D01*
G01X12509804Y-7470251D01*
G01X12511215Y-7460300D01*
G01X12511215Y-7319300D01*
G01X12509367Y-7307944D01*
G01X12504014Y-7297761D01*
G01X12495709Y-7289800D01*
G01X12504014Y-7281839D01*
G01X12509367Y-7271656D01*
G01X12511215Y-7260300D01*
G01X12511215Y-7141269D01*
G01X12560503Y-7141269D01*
G01X12566617Y-7141794D01*
G01X12645626Y-7141794D01*
G01X12653307Y-7140961D01*
G01X12660630Y-7138500D01*
G01X12667953Y-7140961D01*
G01X12675634Y-7141794D01*
G01X12754643Y-7141794D01*
G01X12765710Y-7140041D01*
G01X12775694Y-7134954D01*
G01X12783617Y-7127031D01*
G01X12788704Y-7117047D01*
G01X12790457Y-7105980D01*
G01X12790457Y-7051980D01*
G01X12788704Y-7040913D01*
G01X12783617Y-7030929D01*
G01X12775694Y-7023006D01*
G01X12765710Y-7017919D01*
G01X12754643Y-7016166D01*
G01X12675634Y-7016166D01*
G01X12667953Y-7016999D01*
G01X12660630Y-7019460D01*
G01X12653307Y-7016999D01*
G01X12645626Y-7016166D01*
G01X12566617Y-7016166D01*
G01X12559696Y-7016841D01*
G01X12553036Y-7018841D01*
G01X12475735Y-7018841D01*
G01X12475794Y-7016783D01*
G01X12475794Y-6937774D01*
G01X12474961Y-6930093D01*
G01X12472500Y-6922770D01*
G01X12474961Y-6915447D01*
G01X12475794Y-6907766D01*
G01X12475794Y-6828757D01*
G01X12474214Y-6818235D01*
G01X12474214Y-6642083D01*
G01X12475785Y-6636132D01*
G01X12476314Y-6630000D01*
G01X12476314Y-6530000D01*
G01X12474561Y-6518933D01*
G01X12469474Y-6508949D01*
G01X12461551Y-6501026D01*
G01X12451567Y-6495939D01*
G01X12440500Y-6494186D01*
G01X12385500Y-6494186D01*
G01X12374433Y-6495939D01*
G01X12364449Y-6501026D01*
G01X12356526Y-6508949D01*
G01X12351439Y-6518933D01*
G01X12349686Y-6530000D01*
G01X12349686Y-6630000D01*
G01X12350215Y-6636132D01*
G01X12351786Y-6642083D01*
G01X12351786Y-6818107D01*
G01X12350166Y-6828757D01*
G01X12350166Y-6907766D01*
G01X12350999Y-6915447D01*
G01X12353460Y-6922770D01*
G01X12350999Y-6930093D01*
G01X12350166Y-6937774D01*
G01X12350166Y-7016783D01*
G01X12350686Y-7022864D01*
G01X12352231Y-7028768D01*
G01X12352231Y-7083486D01*
G01X12340400Y-7083486D01*
G01X12329332Y-7085239D01*
G01X12319349Y-7090326D01*
G01X12311425Y-7098249D01*
G01X12306338Y-7108233D01*
G01X12304586Y-7119300D01*
G01X12304586Y-7260300D01*
G01X12306433Y-7271656D01*
G01X12311786Y-7281839D01*
G01X12320091Y-7289800D01*
G01X12311786Y-7297761D01*
G01X12306433Y-7307944D01*
G01X12304586Y-7319300D01*
G01X12304586Y-7460300D01*
G01X12305996Y-7470251D01*
G01X12310115Y-7479418D01*
G01X12316619Y-7487080D01*
G01X12324996Y-7492632D01*
G01X12334586Y-7495639D01*
G01X12334586Y-7539186D01*
G01X12332913Y-7539186D01*
G01X12321846Y-7540939D01*
G01X12311862Y-7546026D01*
G01X12303939Y-7553949D01*
G01X12298852Y-7563933D01*
G01X12297099Y-7575000D01*
G01X12297099Y-8019285D01*
G01X12077901Y-8019285D01*
G01X12069228Y-8020351D01*
G01X12061071Y-8023486D01*
G01X10945114Y-8023486D01*
G01X10945114Y-5732335D01*
G01X11049686Y-5732335D01*
G01X11049686Y-5788901D01*
G01X11050518Y-5796579D01*
G01X11052978Y-5803900D01*
G01X11050518Y-5811221D01*
G01X11049686Y-5818899D01*
G01X11049686Y-5875464D01*
G01X11051286Y-5886050D01*
G01X11051286Y-5943600D01*
G01X11052462Y-5955542D01*
G01X11055946Y-5967026D01*
G01X11061602Y-5977609D01*
G01X11069215Y-5986885D01*
G01X11107315Y-6024985D01*
G01X11116591Y-6032598D01*
G01X11127174Y-6038254D01*
G01X11138658Y-6041738D01*
G01X11150600Y-6042914D01*
G01X11168668Y-6042914D01*
G01X11179254Y-6044514D01*
G01X11242901Y-6044514D01*
G01X11254152Y-6042701D01*
G01X11254152Y-6139835D01*
G01X11246901Y-6145540D01*
G01X11241348Y-6152908D01*
G01X11237861Y-6161450D01*
G01X11236673Y-6170600D01*
G01X11236673Y-6224600D01*
G01X11238157Y-6234804D01*
G01X11242487Y-6244162D01*
G01X11249304Y-6251899D01*
G01X11249304Y-6283001D01*
G01X11249304Y-6283001D01*
G01X11242487Y-6290738D01*
G01X11238157Y-6300096D01*
G01X11236673Y-6310300D01*
G01X11236673Y-6364300D01*
G01X11238157Y-6374504D01*
G01X11242487Y-6383862D01*
G01X11249304Y-6391599D01*
G01X11249304Y-6423222D01*
G01X11247150Y-6430115D01*
G01X11246422Y-6437300D01*
G01X11246422Y-6491300D01*
G01X11247150Y-6498485D01*
G01X11249304Y-6505378D01*
G01X11249304Y-6550222D01*
G01X11247150Y-6557115D01*
G01X11246422Y-6564300D01*
G01X11246422Y-6618300D01*
G01X11247150Y-6625485D01*
G01X11249304Y-6632378D01*
G01X11249304Y-6664001D01*
G01X11242487Y-6671738D01*
G01X11238157Y-6681096D01*
G01X11236673Y-6691300D01*
G01X11236673Y-6745300D01*
G01X11238342Y-6756107D01*
G01X11243195Y-6765906D01*
G01X11250778Y-6773784D01*
G01X11250778Y-6789816D01*
G01X11243195Y-6797694D01*
G01X11238342Y-6807493D01*
G01X11236673Y-6818300D01*
G01X11236673Y-6872300D01*
G01X11238342Y-6883107D01*
G01X11243195Y-6892906D01*
G01X11250778Y-6900784D01*
G01X11250778Y-6905092D01*
G01X11251954Y-6917034D01*
G01X11255437Y-6928517D01*
G01X11261094Y-6939100D01*
G01X11268707Y-6948376D01*
G01X11310515Y-6990185D01*
G01X11319791Y-6997798D01*
G01X11330374Y-7003454D01*
G01X11341858Y-7006938D01*
G01X11353800Y-7008114D01*
G01X11524438Y-7008114D01*
G01X11530133Y-7015495D01*
G01X11537540Y-7021156D01*
G01X11546157Y-7024714D01*
G01X11555400Y-7025927D01*
G01X11609400Y-7025927D01*
G01X11620207Y-7024258D01*
G01X11630006Y-7019405D01*
G01X11637884Y-7011822D01*
G01X11666616Y-7011822D01*
G01X11674494Y-7019405D01*
G01X11684293Y-7024258D01*
G01X11695100Y-7025927D01*
G01X11749100Y-7025927D01*
G01X11759907Y-7024258D01*
G01X11769706Y-7019405D01*
G01X11777584Y-7011822D01*
G01X11852910Y-7011822D01*
G01X11860943Y-7011293D01*
G01X11868837Y-7009714D01*
G01X11884901Y-7009714D01*
G01X11892579Y-7008882D01*
G01X11899900Y-7006422D01*
G01X11907221Y-7008882D01*
G01X11914899Y-7009714D01*
G01X11971465Y-7009714D01*
G01X11982050Y-7008114D01*
G01X12049301Y-7008114D01*
G01X12059887Y-7009714D01*
G01X12138896Y-7009714D01*
G01X12146577Y-7008881D01*
G01X12153900Y-7006420D01*
G01X12161223Y-7008881D01*
G01X12168904Y-7009714D01*
G01X12247913Y-7009714D01*
G01X12258980Y-7007961D01*
G01X12268964Y-7002874D01*
G01X12276887Y-6994951D01*
G01X12281974Y-6984967D01*
G01X12283727Y-6973900D01*
G01X12283727Y-6919900D01*
G01X12282625Y-6911085D01*
G01X12279388Y-6902812D01*
G01X12274214Y-6895591D01*
G01X12274214Y-6642083D01*
G01X12275785Y-6636132D01*
G01X12276314Y-6630000D01*
G01X12276314Y-6530000D01*
G01X12274561Y-6518933D01*
G01X12269474Y-6508949D01*
G01X12261551Y-6501026D01*
G01X12251567Y-6495939D01*
G01X12240500Y-6494186D01*
G01X12185814Y-6494186D01*
G01X12185814Y-6442000D01*
G01X12184900Y-6433960D01*
G01X12182204Y-6426330D01*
G01X12177864Y-6419500D01*
G01X12182204Y-6412670D01*
G01X12184900Y-6405040D01*
G01X12185814Y-6397000D01*
G01X12185814Y-6342000D01*
G01X12184061Y-6330933D01*
G01X12178974Y-6320949D01*
G01X12171051Y-6313026D01*
G01X12161067Y-6307939D01*
G01X12150000Y-6306186D01*
G01X12050000Y-6306186D01*
G01X12043868Y-6306715D01*
G01X12037917Y-6308286D01*
G01X12022388Y-6308286D01*
G01X12009889Y-6304473D01*
G01X11996885Y-6303186D01*
G01X11983881Y-6304473D01*
G01X11971382Y-6308286D01*
G01X11868556Y-6308286D01*
G01X11854285Y-6294015D01*
G01X11845009Y-6286402D01*
G01X11834426Y-6280746D01*
G01X11822942Y-6277262D01*
G01X11811000Y-6276086D01*
G01X11774322Y-6276086D01*
G01X11774322Y-6253084D01*
G01X11781905Y-6245206D01*
G01X11786758Y-6235407D01*
G01X11788427Y-6224600D01*
G01X11788427Y-6170600D01*
G01X11787214Y-6161357D01*
G01X11783656Y-6152740D01*
G01X11777995Y-6145333D01*
G01X11770614Y-6139638D01*
G01X11770614Y-6084662D01*
G01X11780417Y-6081806D01*
G01X11789015Y-6076300D01*
G01X11795711Y-6068591D01*
G01X11799959Y-6059307D01*
G01X11801414Y-6049200D01*
G01X11801414Y-5914199D01*
G01X11799959Y-5904093D01*
G01X11795711Y-5894809D01*
G01X11789015Y-5887100D01*
G01X11780417Y-5881594D01*
G01X11770614Y-5878738D01*
G01X11770614Y-5788970D01*
G01X11774427Y-5776471D01*
G01X11775714Y-5763467D01*
G01X11774427Y-5750463D01*
G01X11770614Y-5737964D01*
G01X11770614Y-5600700D01*
G01X11769438Y-5588758D01*
G01X11765954Y-5577274D01*
G01X11760298Y-5566691D01*
G01X11752685Y-5557415D01*
G01X11721189Y-5525919D01*
G01X11711913Y-5518306D01*
G01X11701330Y-5512650D01*
G01X11689846Y-5509166D01*
G01X11677904Y-5507990D01*
G01X11594866Y-5507990D01*
G01X11586383Y-5504559D01*
G01X11577307Y-5503390D01*
G01X11477308Y-5503390D01*
G01X11466240Y-5505143D01*
G01X11456257Y-5510230D01*
G01X11448333Y-5518153D01*
G01X11443246Y-5528137D01*
G01X11441494Y-5539204D01*
G01X11441494Y-5599204D01*
G01X11442654Y-5608246D01*
G01X11446059Y-5616702D01*
G01X11442654Y-5625158D01*
G01X11441494Y-5634200D01*
G01X11441494Y-5694200D01*
G01X11442654Y-5703242D01*
G01X11446059Y-5711698D01*
G01X11442654Y-5720154D01*
G01X11441494Y-5729196D01*
G01X11441494Y-5789196D01*
G01X11443246Y-5800263D01*
G01X11448333Y-5810247D01*
G01X11456257Y-5818170D01*
G01X11466240Y-5823257D01*
G01X11477308Y-5825010D01*
G01X11577307Y-5825010D01*
G01X11582152Y-5824681D01*
G01X11648186Y-5824681D01*
G01X11648186Y-5878385D01*
G01X11624600Y-5878385D01*
G01X11613244Y-5880233D01*
G01X11603061Y-5885586D01*
G01X11595100Y-5893891D01*
G01X11587139Y-5885586D01*
G01X11576956Y-5880233D01*
G01X11565600Y-5878385D01*
G01X11424600Y-5878385D01*
G01X11413533Y-5880138D01*
G01X11403549Y-5885225D01*
G01X11395626Y-5893149D01*
G01X11390539Y-5903132D01*
G01X11388786Y-5914199D01*
G01X11388786Y-6049200D01*
G01X11390539Y-6060268D01*
G01X11395626Y-6070251D01*
G01X11403549Y-6078175D01*
G01X11413533Y-6083262D01*
G01X11424600Y-6085014D01*
G01X11565600Y-6085014D01*
G01X11576956Y-6083167D01*
G01X11587139Y-6077814D01*
G01X11595100Y-6069509D01*
G01X11603061Y-6077814D01*
G01X11613244Y-6083167D01*
G01X11624600Y-6085014D01*
G01X11648186Y-6085014D01*
G01X11648186Y-6135081D01*
G01X11643596Y-6134786D01*
G01X11564587Y-6134786D01*
G01X11553520Y-6136539D01*
G01X11543536Y-6141626D01*
G01X11535613Y-6149549D01*
G01X11530526Y-6159533D01*
G01X11528773Y-6170600D01*
G01X11528773Y-6224600D01*
G01X11530526Y-6235667D01*
G01X11535613Y-6245651D01*
G01X11543536Y-6253574D01*
G01X11553520Y-6258661D01*
G01X11564587Y-6260414D01*
G01X11643596Y-6260414D01*
G01X11651894Y-6259440D01*
G01X11651894Y-6275460D01*
G01X11643596Y-6274486D01*
G01X11564587Y-6274486D01*
G01X11553520Y-6276239D01*
G01X11543536Y-6281326D01*
G01X11535613Y-6289249D01*
G01X11530526Y-6299233D01*
G01X11528773Y-6310300D01*
G01X11528773Y-6364300D01*
G01X11530526Y-6375367D01*
G01X11535613Y-6385351D01*
G01X11543536Y-6393274D01*
G01X11553520Y-6398361D01*
G01X11564587Y-6400114D01*
G01X11643596Y-6400114D01*
G01X11651277Y-6399281D01*
G01X11658600Y-6396820D01*
G01X11665923Y-6399281D01*
G01X11673604Y-6400114D01*
G01X11752613Y-6400114D01*
G01X11763199Y-6398514D01*
G01X11785644Y-6398514D01*
G01X11795416Y-6408286D01*
G01X11786309Y-6408286D01*
G01X11776348Y-6403228D01*
G01X11765313Y-6401486D01*
G01X11686304Y-6401486D01*
G01X11678623Y-6402319D01*
G01X11671300Y-6404780D01*
G01X11663977Y-6402319D01*
G01X11656296Y-6401486D01*
G01X11577287Y-6401486D01*
G01X11566701Y-6403086D01*
G01X11435950Y-6403086D01*
G01X11425365Y-6401486D01*
G01X11371732Y-6401486D01*
G01X11371732Y-6398755D01*
G01X11381504Y-6400114D01*
G01X11460513Y-6400114D01*
G01X11471580Y-6398361D01*
G01X11481564Y-6393274D01*
G01X11489487Y-6385351D01*
G01X11494574Y-6375367D01*
G01X11496327Y-6364300D01*
G01X11496327Y-6310300D01*
G01X11494574Y-6299233D01*
G01X11489487Y-6289249D01*
G01X11481564Y-6281326D01*
G01X11471580Y-6276239D01*
G01X11460513Y-6274486D01*
G01X11381504Y-6274486D01*
G01X11371732Y-6275845D01*
G01X11371732Y-6259055D01*
G01X11381504Y-6260414D01*
G01X11460513Y-6260414D01*
G01X11471580Y-6258661D01*
G01X11481564Y-6253574D01*
G01X11489487Y-6245651D01*
G01X11494574Y-6235667D01*
G01X11496327Y-6224600D01*
G01X11496327Y-6170600D01*
G01X11494574Y-6159533D01*
G01X11489487Y-6149549D01*
G01X11481564Y-6141626D01*
G01X11471580Y-6136539D01*
G01X11460513Y-6134786D01*
G01X11381504Y-6134786D01*
G01X11376580Y-6135126D01*
G01X11376580Y-6033294D01*
G01X11381896Y-6026016D01*
G01X11385226Y-6017641D01*
G01X11386360Y-6008700D01*
G01X11386360Y-5954700D01*
G01X11385226Y-5945759D01*
G01X11381896Y-5937384D01*
G01X11376580Y-5930106D01*
G01X11376580Y-5819372D01*
G01X11385408Y-5811381D01*
G01X11391127Y-5800937D01*
G01X11393107Y-5789196D01*
G01X11393107Y-5729196D01*
G01X11391354Y-5718129D01*
G01X11386267Y-5708145D01*
G01X11378343Y-5700222D01*
G01X11368360Y-5695135D01*
G01X11357293Y-5693382D01*
G01X11257293Y-5693382D01*
G01X11246226Y-5695135D01*
G01X11236242Y-5700222D01*
G01X11228319Y-5708145D01*
G01X11223232Y-5718129D01*
G01X11221479Y-5729196D01*
G01X11221479Y-5789196D01*
G01X11223042Y-5799663D01*
G01X11227597Y-5809217D01*
G01X11234745Y-5817022D01*
G01X11243863Y-5822396D01*
G01X11254152Y-5824872D01*
G01X11254152Y-5920699D01*
G01X11242901Y-5918886D01*
G01X11179254Y-5918886D01*
G01X11174652Y-5919183D01*
G01X11173714Y-5918244D01*
G01X11173714Y-5886050D01*
G01X11175314Y-5875464D01*
G01X11175314Y-5818899D01*
G01X11174482Y-5811221D01*
G01X11172022Y-5803900D01*
G01X11174482Y-5796579D01*
G01X11175314Y-5788901D01*
G01X11175314Y-5732335D01*
G01X11173561Y-5721268D01*
G01X11168474Y-5711285D01*
G01X11160551Y-5703361D01*
G01X11150567Y-5698274D01*
G01X11139500Y-5696521D01*
G01X11085500Y-5696521D01*
G01X11074433Y-5698274D01*
G01X11064449Y-5703361D01*
G01X11056526Y-5711285D01*
G01X11051439Y-5721268D01*
G01X11049686Y-5732335D01*
G01X10945114Y-5732335D01*
G01X10945114Y-5599204D01*
G01X11221479Y-5599204D01*
G01X11223232Y-5610271D01*
G01X11228319Y-5620255D01*
G01X11236242Y-5628178D01*
G01X11246226Y-5633265D01*
G01X11257293Y-5635018D01*
G01X11357293Y-5635018D01*
G01X11357293Y-5635018D01*
G01X11368360Y-5633265D01*
G01X11378343Y-5628178D01*
G01X11386267Y-5620255D01*
G01X11391354Y-5610271D01*
G01X11393107Y-5599204D01*
G01X11393107Y-5539204D01*
G01X11391354Y-5528137D01*
G01X11386267Y-5518153D01*
G01X11378343Y-5510230D01*
G01X11368360Y-5505143D01*
G01X11357293Y-5503390D01*
G01X11257293Y-5503390D01*
G01X11246226Y-5505143D01*
G01X11236242Y-5510230D01*
G01X11228319Y-5518153D01*
G01X11223232Y-5528137D01*
G01X11221479Y-5539204D01*
G01X11221479Y-5599204D01*
G01X10945114Y-5599204D01*
G01X10945114Y-4595114D01*
G01X12053714Y-4595114D01*
G01X12060911Y-4600228D01*
G01X12069140Y-4603426D01*
G01X12077901Y-4604515D01*
G37*
G36*
G01X11784914Y-6881096D02*
G01X11784914Y-6802087D01*
G01X11783161Y-6791020D01*
G01X11778074Y-6781036D01*
G01X11770151Y-6773113D01*
G01X11760167Y-6768026D01*
G01X11749100Y-6766273D01*
G01X11695100Y-6766273D01*
G01X11684033Y-6768026D01*
G01X11674049Y-6773113D01*
G01X11666126Y-6781036D01*
G01X11661039Y-6791020D01*
G01X11659286Y-6802087D01*
G01X11659286Y-6881096D01*
G01X11660260Y-6889394D01*
G01X11644240Y-6889394D01*
G01X11645214Y-6881096D01*
G01X11645214Y-6802087D01*
G01X11643461Y-6791020D01*
G01X11638374Y-6781036D01*
G01X11630451Y-6773113D01*
G01X11620467Y-6768026D01*
G01X11609400Y-6766273D01*
G01X11555400Y-6766273D01*
G01X11544333Y-6768026D01*
G01X11534349Y-6773113D01*
G01X11526426Y-6781036D01*
G01X11521339Y-6791020D01*
G01X11519586Y-6802087D01*
G01X11519586Y-6881096D01*
G01X11519881Y-6885686D01*
G01X11493731Y-6885686D01*
G01X11495672Y-6879118D01*
G01X11496327Y-6872300D01*
G01X11496327Y-6818300D01*
G01X11494574Y-6807233D01*
G01X11489487Y-6797249D01*
G01X11481564Y-6789326D01*
G01X11471580Y-6784239D01*
G01X11460513Y-6782486D01*
G01X11381504Y-6782486D01*
G01X11373206Y-6783460D01*
G01X11373206Y-6780140D01*
G01X11381504Y-6781114D01*
G01X11460513Y-6781114D01*
G01X11471580Y-6779361D01*
G01X11481564Y-6774274D01*
G01X11489487Y-6766351D01*
G01X11494574Y-6756367D01*
G01X11496327Y-6745300D01*
G01X11496327Y-6691300D01*
G01X11494574Y-6680233D01*
G01X11489487Y-6670249D01*
G01X11481564Y-6662326D01*
G01X11471580Y-6657239D01*
G01X11460513Y-6655486D01*
G01X11381504Y-6655486D01*
G01X11371732Y-6656845D01*
G01X11371732Y-6654114D01*
G01X11425365Y-6654114D01*
G01X11435950Y-6652514D01*
G01X11566701Y-6652514D01*
G01X11577287Y-6654114D01*
G01X11656296Y-6654114D01*
G01X11663977Y-6653281D01*
G01X11671300Y-6650820D01*
G01X11678623Y-6653281D01*
G01X11686304Y-6654114D01*
G01X11765313Y-6654114D01*
G01X11776041Y-6652470D01*
G01X11785783Y-6647688D01*
G01X11793646Y-6640207D01*
G01X11798907Y-6630714D01*
G01X12037917Y-6630714D01*
G01X12043868Y-6632285D01*
G01X12050000Y-6632814D01*
G01X12149797Y-6632814D01*
G01X12151786Y-6642083D01*
G01X12151786Y-6886486D01*
G01X12145452Y-6884691D01*
G01X12138896Y-6884086D01*
G01X12059887Y-6884086D01*
G01X12049301Y-6885686D01*
G01X11982050Y-6885686D01*
G01X11971465Y-6884086D01*
G01X11914899Y-6884086D01*
G01X11907221Y-6884918D01*
G01X11899900Y-6887378D01*
G01X11892579Y-6884918D01*
G01X11884901Y-6884086D01*
G01X11828336Y-6884086D01*
G01X11818586Y-6885438D01*
G01X11809572Y-6889394D01*
G01X11783940Y-6889394D01*
G01X11784914Y-6881096D01*
G37*
G36*
G01X11613121Y-5694200D02*
G01X11613121Y-5634200D01*
G01X11612921Y-5630418D01*
G01X11648186Y-5630418D01*
G01X11648186Y-5702253D01*
G01X11612204Y-5702253D01*
G01X11613121Y-5694200D01*
G37*
G36*
G01X12897344Y-6430714D02*
G01X12923415Y-6456785D01*
G01X12932691Y-6464398D01*
G01X12943274Y-6470054D01*
G01X12954758Y-6473538D01*
G01X12966700Y-6474714D01*
G01X12980381Y-6474714D01*
G01X12980086Y-6479304D01*
G01X12980086Y-6558313D01*
G01X12981474Y-6568188D01*
G01X12985532Y-6577298D01*
G01X12991943Y-6584935D01*
G01X13000213Y-6590509D01*
G01X13009698Y-6593586D01*
G01X12966656Y-6593586D01*
G01X12803784Y-6430714D01*
G01X12897344Y-6430714D01*
G37*
G36*
G01X13119786Y-6479304D02*
G01X13119786Y-6558313D01*
G01X13121447Y-6569096D01*
G01X13126278Y-6578877D01*
G01X13133830Y-6586751D01*
G01X13143402Y-6591986D01*
G01X13108699Y-6591986D01*
G01X13101021Y-6592818D01*
G01X13093700Y-6595278D01*
G01X13087856Y-6593176D01*
G01X13081736Y-6592115D01*
G01X13091441Y-6586925D01*
G01X13099111Y-6579034D01*
G01X13104023Y-6569187D01*
G01X13105714Y-6558313D01*
G01X13105714Y-6479304D01*
G01X13105419Y-6474714D01*
G01X13120081Y-6474714D01*
G01X13119786Y-6479304D01*
G37*
G54D10*
G01X12077901Y-4604515D02*
G01X12297073Y-4604515D01*
G01X12297073Y-5040000D01*
G03X12332887Y-5075814I35814J0D01*
G01X12334586Y-5075814D01*
G01X12334586Y-5115461D01*
G03X12304586Y-5150800I5814J-35339D01*
G01X12304586Y-5291800D01*
G03X12320091Y-5321300I35814J0D01*
G03X12304586Y-5350800I20308J-29500D01*
G01X12304586Y-5491800D01*
G03X12340400Y-5527614I35814J0D01*
G01X12346686Y-5527614D01*
G01X12346686Y-5564886D01*
G01X12233808Y-5564886D01*
G01X12233112Y-5564890D01*
G03X12222513Y-5563286I-10599J-34210D01*
G01X12143504Y-5563286D01*
G03X12128500Y-5566580I0J-35814D01*
G03X12113496Y-5563286I-15004J-32520D01*
G01X12034487Y-5563286D01*
G03X11998673Y-5599100I0J-35814D01*
G01X11998673Y-5653100D01*
G03X12034487Y-5688914I35814J0D01*
G01X12113496Y-5688914D01*
G03X12128500Y-5685620I0J35814D01*
G03X12143504Y-5688914I15004J32520D01*
G01X12222513Y-5688914D01*
G03X12233112Y-5687310I0J35814D01*
G01X12233808Y-5687314D01*
G01X12345381Y-5687314D01*
G03X12345086Y-5691904I35519J-4590D01*
G01X12345086Y-5770913D01*
G03X12351786Y-5791770I35814J0D01*
G01X12351786Y-5997917D01*
G03X12349686Y-6010000I33714J-12083D01*
G01X12349686Y-6110000D01*
G03X12385500Y-6145814I35814J0D01*
G01X12440500Y-6145814D01*
G03X12476314Y-6110000I0J35814D01*
G01X12476314Y-6010000D01*
G03X12474214Y-5997917I-35814J0D01*
G01X12474214Y-5736508D01*
G03X12470714Y-5716107I-61214J0D01*
G01X12470714Y-5691904D01*
G03X12467420Y-5676900I-35814J0D01*
G03X12470714Y-5661896I-32520J15004D01*
G01X12470714Y-5582887D01*
G03X12469114Y-5572301I-35814J0D01*
G01X12469114Y-5527614D01*
G01X12475401Y-5527614D01*
G03X12511215Y-5491800I0J35814D01*
G01X12511215Y-5350800D01*
G03X12495709Y-5321300I-35814J0D01*
G03X12511215Y-5291800I-20308J29500D01*
G01X12511215Y-5150800D01*
G03X12481214Y-5115461I-35814J0D01*
G01X12481214Y-5075814D01*
G01X12482887Y-5075814D01*
G03X12518701Y-5040000I0J35814D01*
G01X12518701Y-4604515D01*
G01X12737899Y-4604515D01*
G03X12762086Y-4595114I0J35814D01*
G01X13873486Y-4595114D01*
G01X13873486Y-8023486D01*
G01X12754729Y-8023486D01*
G03X12737899Y-8019285I-16830J-31613D01*
G01X12518727Y-8019285D01*
G01X12518727Y-7575000D01*
G03X12482913Y-7539186I-35814J0D01*
G01X12481214Y-7539186D01*
G01X12481214Y-7495639D01*
G03X12511215Y-7460300I-5814J35339D01*
G01X12511215Y-7319300D01*
G03X12495709Y-7289800I-35814J0D01*
G03X12511215Y-7260300I-20308J29500D01*
G01X12511215Y-7141269D01*
G01X12560503Y-7141269D01*
G03X12566617Y-7141794I6114J35288D01*
G01X12645626Y-7141794D01*
G03X12660630Y-7138500I0J35814D01*
G03X12675634Y-7141794I15004J32520D01*
G01X12754643Y-7141794D01*
G03X12790457Y-7105980I0J35814D01*
G01X12790457Y-7051980D01*
G03X12754643Y-7016166I-35814J0D01*
G01X12675634Y-7016166D01*
G03X12660630Y-7019460I0J-35814D01*
G03X12645626Y-7016166I-15004J-32520D01*
G01X12566617Y-7016166D01*
G03X12553036Y-7018841I0J-35814D01*
G01X12475735Y-7018841D01*
G01X12475794Y-7016783D01*
G01X12475794Y-6937774D01*
G03X12472500Y-6922770I-35814J0D01*
G03X12475794Y-6907766I-32520J15004D01*
G01X12475794Y-6828757D01*
G03X12474214Y-6818235I-35814J0D01*
G01X12474214Y-6642083D01*
G03X12476314Y-6630000I-33714J12083D01*
G01X12476314Y-6530000D01*
G03X12440500Y-6494186I-35814J0D01*
G01X12385500Y-6494186D01*
G03X12349686Y-6530000I0J-35814D01*
G01X12349686Y-6630000D01*
G03X12351786Y-6642083I35814J0D01*
G01X12351786Y-6818107D01*
G03X12350166Y-6828757I34194J-10650D01*
G01X12350166Y-6907766D01*
G03X12353460Y-6922770I35814J0D01*
G03X12350166Y-6937774I32520J-15004D01*
G01X12350166Y-7016783D01*
G03X12352231Y-7028768I35814J0D01*
G01X12352231Y-7083486D01*
G01X12340400Y-7083486D01*
G03X12304586Y-7119300I0J-35814D01*
G01X12304586Y-7260300D01*
G03X12320091Y-7289800I35814J0D01*
G03X12304586Y-7319300I20308J-29500D01*
G01X12304586Y-7460300D01*
G03X12334586Y-7495639I35814J0D01*
G01X12334586Y-7539186D01*
G01X12332913Y-7539186D01*
G03X12297099Y-7575000I0J-35814D01*
G01X12297099Y-8019285D01*
G01X12077901Y-8019285D01*
G03X12061071Y-8023486I0J-35814D01*
G01X10945114Y-8023486D01*
G01X10945114Y-4595114D01*
G01X12053714Y-4595114D01*
G03X12077901Y-4604515I24186J26413D01*
G01X11249304Y-6283001D02*
G03X11236673Y-6310300I23183J-27299D01*
G01X11236673Y-6364300D01*
G03X11249304Y-6391599I35814J0D01*
G01X11249304Y-6423222D01*
G03X11246422Y-6437300I32931J-14078D01*
G01X11246422Y-6491300D01*
G03X11249304Y-6505378I35814J0D01*
G01X11249304Y-6550222D01*
G03X11246422Y-6564300I32931J-14078D01*
G01X11246422Y-6618300D01*
G03X11249304Y-6632378I35814J0D01*
G01X11249304Y-6664001D01*
G03X11236673Y-6691300I23183J-27299D01*
G01X11236673Y-6745300D01*
G03X11250778Y-6773784I35814J0D01*
G01X11250778Y-6789816D01*
G03X11236673Y-6818300I21709J-28484D01*
G01X11236673Y-6872300D01*
G03X11250778Y-6900784I35814J0D01*
G01X11250778Y-6905092D01*
G03X11268707Y-6948376I61214J0D01*
G01X11310515Y-6990185D01*
G03X11353800Y-7008114I43285J43285D01*
G01X11524438Y-7008114D01*
G03X11555400Y-7025927I30961J18001D01*
G01X11609400Y-7025927D01*
G03X11637884Y-7011822I0J35814D01*
G01X11666616Y-7011822D01*
G03X11695100Y-7025927I28484J21709D01*
G01X11749100Y-7025927D01*
G03X11777584Y-7011822I0J35814D01*
G01X11852910Y-7011822D01*
G03X11868837Y-7009714I0J61214D01*
G01X11884901Y-7009714D01*
G03X11899900Y-7006422I0J35814D01*
G03X11914899Y-7009714I14999J32522D01*
G01X11971465Y-7009714D01*
G03X11982050Y-7008114I0J35814D01*
G01X12049301Y-7008114D01*
G03X12059887Y-7009714I10586J34214D01*
G01X12138896Y-7009714D01*
G03X12153900Y-7006420I0J35814D01*
G03X12168904Y-7009714I15004J32520D01*
G01X12247913Y-7009714D01*
G03X12283727Y-6973900I0J35814D01*
G01X12283727Y-6919900D01*
G03X12274214Y-6895591I-35814J0D01*
G01X12274214Y-6642083D01*
G03X12276314Y-6630000I-33714J12083D01*
G01X12276314Y-6530000D01*
G03X12240500Y-6494186I-35814J0D01*
G01X12185814Y-6494186D01*
G01X12185814Y-6442000D01*
G03X12177864Y-6419500I-35814J0D01*
G03X12185814Y-6397000I-27864J22500D01*
G01X12185814Y-6342000D01*
G03X12150000Y-6306186I-35814J0D01*
G01X12050000Y-6306186D01*
G03X12037917Y-6308286I0J-35814D01*
G01X12022388Y-6308286D01*
G03X11971382Y-6308286I-25503J-61214D01*
G01X11868556Y-6308286D01*
G01X11854285Y-6294015D01*
G03X11811000Y-6276086I-43285J-43285D01*
G01X11774322Y-6276086D01*
G01X11774322Y-6253084D01*
G03X11788427Y-6224600I-21709J28484D01*
G01X11788427Y-6170600D01*
G03X11770614Y-6139638I-35814J0D01*
G01X11770614Y-6084662D01*
G03X11801414Y-6049200I-5014J35461D01*
G01X11801414Y-5914199D01*
G03X11770614Y-5878738I-35814J0D01*
G01X11770614Y-5788970D01*
G03X11770614Y-5737964I-61214J25503D01*
G01X11770614Y-5600700D01*
G03X11752685Y-5557415I-61214J0D01*
G01X11721189Y-5525919D01*
G03X11677904Y-5507990I-43285J-43285D01*
G01X11594866Y-5507990D01*
G03X11577307Y-5503390I-17559J-31214D01*
G01X11477308Y-5503390D01*
G03X11441494Y-5539204I0J-35814D01*
G01X11441494Y-5599204D01*
G03X11446059Y-5616702I35814J0D01*
G03X11441494Y-5634200I31248J-17498D01*
G01X11441494Y-5694200D01*
G03X11446059Y-5711698I35814J0D01*
G03X11441494Y-5729196I31248J-17498D01*
G01X11441494Y-5789196D01*
G03X11477308Y-5825010I35814J0D01*
G01X11577307Y-5825010D01*
G03X11582152Y-5824681I0J35814D01*
G01X11648186Y-5824681D01*
G01X11648186Y-5878385D01*
G01X11624600Y-5878385D01*
G03X11595100Y-5893891I0J-35814D01*
G03X11565600Y-5878385I-29500J-20308D01*
G01X11424600Y-5878385D01*
G03X11388786Y-5914199I0J-35814D01*
G01X11388786Y-6049200D01*
G03X11424600Y-6085014I35814J0D01*
G01X11565600Y-6085014D01*
G03X11595100Y-6069509I0J35814D01*
G03X11624600Y-6085014I29500J20308D01*
G01X11648186Y-6085014D01*
G01X11648186Y-6135081D01*
G03X11643596Y-6134786I-4590J-35519D01*
G01X11564587Y-6134786D01*
G03X11528773Y-6170600I0J-35814D01*
G01X11528773Y-6224600D01*
G03X11564587Y-6260414I35814J0D01*
G01X11643596Y-6260414D01*
G03X11651894Y-6259440I0J35814D01*
G01X11651894Y-6275460D01*
G03X11643596Y-6274486I-8298J-34839D01*
G01X11564587Y-6274486D01*
G03X11528773Y-6310300I0J-35814D01*
G01X11528773Y-6364300D01*
G03X11564587Y-6400114I35814J0D01*
G01X11643596Y-6400114D01*
G03X11658600Y-6396820I0J35814D01*
G03X11673604Y-6400114I15004J32520D01*
G01X11752613Y-6400114D01*
G03X11763199Y-6398514I0J35814D01*
G01X11785644Y-6398514D01*
G01X11795416Y-6408286D01*
G01X11786309Y-6408286D01*
G03X11765313Y-6401486I-20996J-29014D01*
G01X11686304Y-6401486D01*
G03X11671300Y-6404780I0J-35814D01*
G03X11656296Y-6401486I-15004J-32520D01*
G01X11577287Y-6401486D01*
G03X11566701Y-6403086I0J-35814D01*
G01X11435950Y-6403086D01*
G03X11425365Y-6401486I-10586J-34214D01*
G01X11371732Y-6401486D01*
G01X11371732Y-6398755D01*
G03X11381504Y-6400114I9771J34455D01*
G01X11460513Y-6400114D01*
G03X11496327Y-6364300I0J35814D01*
G01X11496327Y-6310300D01*
G03X11460513Y-6274486I-35814J0D01*
G01X11381504Y-6274486D01*
G03X11371732Y-6275845I0J-35814D01*
G01X11371732Y-6259055D01*
G03X11381504Y-6260414I9771J34455D01*
G01X11460513Y-6260414D01*
G03X11496327Y-6224600I0J35814D01*
G01X11496327Y-6170600D01*
G03X11460513Y-6134786I-35814J0D01*
G01X11381504Y-6134786D01*
G03X11376580Y-6135126I0J-35814D01*
G01X11376580Y-6033294D01*
G03X11386360Y-6008700I-26034J24594D01*
G01X11386360Y-5954700D01*
G03X11376580Y-5930106I-35814J0D01*
G01X11376580Y-5819372D01*
G03X11393107Y-5789196I-19288J30176D01*
G01X11393107Y-5729196D01*
G03X11357293Y-5693382I-35814J0D01*
G01X11257293Y-5693382D01*
G03X11221479Y-5729196I0J-35814D01*
G01X11221479Y-5789196D01*
G03X11254152Y-5824872I35814J0D01*
G01X11254152Y-5920699D01*
G03X11242901Y-5918886I-11251J-34001D01*
G01X11179254Y-5918886D01*
G03X11174652Y-5919183I0J-35814D01*
G01X11173714Y-5918244D01*
G01X11173714Y-5886050D01*
G03X11175314Y-5875464I-34214J10586D01*
G01X11175314Y-5818899D01*
G03X11172022Y-5803900I-35814J0D01*
G03X11175314Y-5788901I-32522J14999D01*
G01X11175314Y-5732335D01*
G03X11139500Y-5696521I-35814J0D01*
G01X11085500Y-5696521D01*
G03X11049686Y-5732335I0J-35814D01*
G01X11049686Y-5788901D01*
G03X11052978Y-5803900I35814J0D01*
G03X11049686Y-5818899I32522J-14999D01*
G01X11049686Y-5875464D01*
G03X11051286Y-5886050I35814J0D01*
G01X11051286Y-5943600D01*
G03X11069215Y-5986885I61214J0D01*
G01X11107315Y-6024985D01*
G03X11150600Y-6042914I43285J43285D01*
G01X11168668Y-6042914D01*
G03X11179254Y-6044514I10586J34214D01*
G01X11242901Y-6044514D01*
G03X11254152Y-6042701I0J35814D01*
G01X11254152Y-6139835D01*
G03X11236673Y-6170600I18334J-30765D01*
G01X11236673Y-6224600D01*
G03X11249304Y-6251899I35814J0D01*
G01X11249304Y-6283001D01*
G01X11357293Y-5635018D02*
G03X11393107Y-5599204I0J35814D01*
G01X11393107Y-5539204D01*
G03X11357293Y-5503390I-35814J0D01*
G01X11257293Y-5503390D01*
G03X11221479Y-5539204I0J-35814D01*
G01X11221479Y-5599204D01*
G03X11257293Y-5635018I35814J0D01*
G01X11357293Y-5635018D01*
G01X12802286Y-5444899D02*
G01X12802286Y-5508546D01*
G03X12803886Y-5519132I35814J0D01*
G01X12803886Y-5586285D01*
G01X12767600Y-5586285D01*
G03X12738100Y-5601791I0J-35814D01*
G03X12708600Y-5586285I-29500J-20308D01*
G01X12567600Y-5586285D01*
G03X12531786Y-5622099I0J-35814D01*
G01X12531786Y-5757100D01*
G03X12567600Y-5792914I35814J0D01*
G01X12708600Y-5792914D01*
G03X12738100Y-5777409I0J35814D01*
G03X12767600Y-5792914I29500J20308D01*
G01X12802286Y-5792914D01*
G01X12802286Y-5815000D01*
G03X12820215Y-5858285I61214J0D01*
G01X12872615Y-5910685D01*
G03X12915900Y-5928614I43285J43285D01*
G01X12990678Y-5928614D01*
G01X12990678Y-5933186D01*
G01X12915900Y-5933186D01*
G03X12872615Y-5951115I0J-61214D01*
G01X12815444Y-6008286D01*
G01X12687083Y-6008286D01*
G03X12675000Y-6006186I-12083J-33714D01*
G01X12575000Y-6006186D01*
G03X12539186Y-6042000I0J-35814D01*
G01X12539186Y-6097000D01*
G03X12547136Y-6119500I35814J0D01*
G03X12539186Y-6142000I27864J-22500D01*
G01X12539186Y-6197000D01*
G03X12547136Y-6219500I35814J0D01*
G03X12539186Y-6242000I27864J-22500D01*
G01X12539186Y-6297000D01*
G03X12547136Y-6319500I35814J0D01*
G03X12539186Y-6342000I27864J-22500D01*
G01X12539186Y-6397000D01*
G03X12547136Y-6419500I35814J0D01*
G03X12539186Y-6442000I27864J-22500D01*
G01X12539186Y-6497000D01*
G03X12547136Y-6519500I35814J0D01*
G03X12539186Y-6542000I27864J-22500D01*
G01X12539186Y-6597000D01*
G03X12562586Y-6630594I35814J0D01*
G01X12562586Y-6654697D01*
G03X12598548Y-6741518I61214J-25503D01*
G01X12868906Y-7011876D01*
G03X12912191Y-7029805I43285J43285D01*
G01X12930261Y-7029805D01*
G03X12929286Y-7038104I34839J-8299D01*
G01X12929286Y-7117113D01*
G03X12965100Y-7152927I35814J0D01*
G01X13019100Y-7152927D01*
G03X13054914Y-7117113I0J35814D01*
G01X13054914Y-7038104D01*
G03X13053940Y-7029805I-35814J0D01*
G01X13079286Y-7029805D01*
G01X13079286Y-7044400D01*
G03X13094791Y-7073900I35814J0D01*
G03X13079286Y-7103400I20308J-29500D01*
G01X13079286Y-7244400D01*
G03X13115100Y-7280214I35814J0D01*
G01X13250101Y-7280214D01*
G03X13285915Y-7244400I0J35814D01*
G01X13285915Y-7103400D01*
G03X13270409Y-7073900I-35814J0D01*
G03X13285915Y-7044400I-20308J29500D01*
G01X13285915Y-7035114D01*
G01X13498500Y-7035114D01*
G03X13541785Y-7017185I0J61214D01*
G01X13721185Y-6837785D01*
G03X13739114Y-6794500I-43285J43285D01*
G01X13739114Y-6142251D01*
G03X13793818Y-5984307I-61514J109751D01*
G03X13643395Y-5911425I-116218J-48193D01*
G01X13392382Y-5660412D01*
G03X13349097Y-5642483I-43285J-43285D01*
G01X13297578Y-5642483D01*
G03X13263910Y-5618883I-33667J-12214D01*
G01X13016911Y-5618883D01*
G03X12981097Y-5654697I0J-35814D01*
G01X12981097Y-5752697D01*
G03X13016911Y-5788511I35814J0D01*
G01X13263910Y-5788511D01*
G03X13297578Y-5764911I0J35814D01*
G01X13323741Y-5764911D01*
G01X13556658Y-5997828D01*
G03X13616686Y-6142585I120942J-34672D01*
G01X13616686Y-6769144D01*
G01X13473144Y-6912686D01*
G01X13285915Y-6912686D01*
G01X13285915Y-6903400D01*
G03X13250101Y-6867586I-35814J0D01*
G01X13115100Y-6867586D01*
G03X13079286Y-6903400I0J-35814D01*
G01X13079286Y-6907377D01*
G01X13047584Y-6907377D01*
G03X13019100Y-6893273I-28484J-21710D01*
G01X12965100Y-6893273D01*
G03X12937023Y-6906853I0J-35814D01*
G01X12685118Y-6654948D01*
G01X12685014Y-6654697D01*
G01X12685014Y-6631385D01*
G03X12710814Y-6597000I-10014J34385D01*
G01X12710814Y-6542000D01*
G03X12708989Y-6530714I-35814J0D01*
G01X12730644Y-6530714D01*
G01X12898015Y-6698085D01*
G03X12941300Y-6716014I43285J43285D01*
G01X13011550Y-6716014D01*
G03X13022136Y-6717614I10586J34214D01*
G01X13075768Y-6717614D01*
G01X13075768Y-6718986D01*
G01X12999687Y-6718986D01*
G03X12963873Y-6754800I0J-35814D01*
G01X12963873Y-6808800D01*
G03X12999687Y-6844614I35814J0D01*
G01X13078696Y-6844614D01*
G03X13093700Y-6841320I0J35814D01*
G03X13108704Y-6844614I15004J32520D01*
G01X13187713Y-6844614D01*
G03X13223527Y-6808800I0J35814D01*
G01X13223527Y-6754800D01*
G03X13198196Y-6720554I-35814J0D01*
G01X13198196Y-6716014D01*
G01X13240150Y-6716014D01*
G03X13250736Y-6717614I10586J34214D01*
G01X13307301Y-6717614D01*
G03X13322300Y-6714322I0J35814D01*
G03X13337299Y-6717614I14999J32522D01*
G01X13393865Y-6717614D01*
G03X13429679Y-6681800I0J35814D01*
G01X13429679Y-6627800D01*
G03X13393865Y-6591986I-35814J0D01*
G01X13337299Y-6591986D01*
G03X13322300Y-6595278I0J-35814D01*
G03X13307301Y-6591986I-14999J-32522D01*
G01X13250736Y-6591986D01*
G03X13240150Y-6593586I0J-35814D01*
G01X13215802Y-6593586D01*
G03X13245414Y-6558313I-6202J35273D01*
G01X13245414Y-6479304D01*
G03X13242120Y-6464300I-35814J0D01*
G03X13245414Y-6449296I-32520J15004D01*
G01X13245414Y-6370287D01*
G03X13209600Y-6334473I-35814J0D01*
G01X13155600Y-6334473D01*
G03X13124638Y-6352286I0J-35814D01*
G01X13100862Y-6352286D01*
G03X13069900Y-6334473I-30961J-18001D01*
G01X13015900Y-6334473D01*
G03X12987823Y-6348053I0J-35814D01*
G01X12970484Y-6330714D01*
G01X13043492Y-6330714D01*
G03X13071532Y-6323914I0J61214D01*
G01X13091396Y-6323914D01*
G03X13106400Y-6320620I0J35814D01*
G03X13121404Y-6323914I15004J32520D01*
G01X13200413Y-6323914D01*
G03X13210999Y-6322314I0J35814D01*
G01X13268501Y-6322314D01*
G03X13279087Y-6323914I10586J34214D01*
G01X13358096Y-6323914D01*
G03X13373100Y-6320620I0J35814D01*
G03X13388104Y-6323914I15004J32520D01*
G01X13467113Y-6323914D01*
G03X13502927Y-6288100I0J35814D01*
G01X13502927Y-6234100D01*
G03X13467113Y-6198286I-35814J0D01*
G01X13388104Y-6198286D01*
G03X13373100Y-6201580I0J-35814D01*
G03X13358096Y-6198286I-15004J-32520D01*
G01X13279087Y-6198286D01*
G03X13268501Y-6199886I0J-35814D01*
G01X13210999Y-6199886D01*
G03X13200413Y-6198286I-10586J-34214D01*
G01X13121404Y-6198286D01*
G03X13106400Y-6201580I0J-35814D01*
G03X13091396Y-6198286I-15004J-32520D01*
G01X13012387Y-6198286D01*
G03X12987562Y-6208286I0J-35814D01*
G01X12949975Y-6208286D01*
G01X12975647Y-6182614D01*
G01X12997458Y-6182614D01*
G03X13015900Y-6187727I18442J30701D01*
G01X13069900Y-6187727D01*
G03X13105714Y-6151913I0J35814D01*
G01X13105714Y-6072904D01*
G03X13104740Y-6064606I-35814J0D01*
G01X13120760Y-6064606D01*
G03X13119786Y-6072904I34839J-8298D01*
G01X13119786Y-6151913D01*
G03X13155600Y-6187727I35814J0D01*
G01X13209600Y-6187727D01*
G03X13245414Y-6151913I0J35814D01*
G01X13245414Y-6072904D01*
G03X13242120Y-6057900I-35814J0D01*
G03X13245414Y-6042896I-32520J15004D01*
G01X13245414Y-5963887D01*
G03X13212321Y-5928176I-35814J0D01*
G03X13236227Y-5894400I-11908J33776D01*
G01X13236227Y-5840400D01*
G03X13200413Y-5804586I-35814J0D01*
G01X13121404Y-5804586D01*
G03X13106400Y-5807880I0J-35814D01*
G03X13091396Y-5804586I-15004J-32520D01*
G01X13012387Y-5804586D01*
G03X13001801Y-5806186I0J-35814D01*
G01X12941256Y-5806186D01*
G01X12924714Y-5789644D01*
G01X12924714Y-5789085D01*
G03X12944414Y-5757100I-16114J31984D01*
G01X12944414Y-5622099D01*
G03X12926314Y-5590973I-35814J0D01*
G01X12926314Y-5537937D01*
G01X12984499Y-5537937D01*
G03X13016911Y-5558514I32411J15236D01*
G01X13263910Y-5558514D01*
G03X13296322Y-5537937I0J35814D01*
G01X13548076Y-5537937D01*
G01X13548076Y-5653700D01*
G03X13583890Y-5689514I35814J0D01*
G01X13830889Y-5689514D01*
G03X13866703Y-5653700I0J35814D01*
G01X13866703Y-5293700D01*
G03X13830889Y-5257886I-35814J0D01*
G01X13583890Y-5257886D01*
G03X13548076Y-5293700I0J-35814D01*
G01X13548076Y-5415509D01*
G01X13298525Y-5415509D01*
G03X13263910Y-5388886I-34615J-9191D01*
G01X13016911Y-5388886D01*
G03X12982296Y-5415509I0J-35814D01*
G01X12924800Y-5415509D01*
G03X12927914Y-5400901I-32700J14608D01*
G01X12927914Y-5337254D01*
G03X12925578Y-5324531I-35814J0D01*
G01X12925578Y-5270214D01*
G03X12934379Y-5246700I-27014J23514D01*
G01X12934379Y-5192700D01*
G03X12898565Y-5156886I-35814J0D01*
G01X12841999Y-5156886D01*
G03X12827000Y-5160178I0J-35814D01*
G03X12812001Y-5156886I-14999J-32522D01*
G01X12755436Y-5156886D01*
G03X12719622Y-5192700I0J-35814D01*
G01X12719622Y-5246700D01*
G03X12755436Y-5282514I35814J0D01*
G01X12803150Y-5282514D01*
G01X12803150Y-5329433D01*
G03X12802286Y-5337254I34950J-7821D01*
G01X12802286Y-5400901D01*
G03X12809839Y-5422900I35814J0D01*
G03X12802286Y-5444899I28261J-21999D01*
G01X13299724Y-5194703D02*
G03X13263910Y-5158889I-35814J0D01*
G01X13016911Y-5158889D01*
G03X12981097Y-5194703I0J-35814D01*
G01X12981097Y-5292703D01*
G03X13016911Y-5328517I35814J0D01*
G01X13263910Y-5328517D01*
G03X13299724Y-5292703I0J35814D01*
G01X13299724Y-5194703D01*
G01X11784914Y-6881096D02*
G01X11784914Y-6802087D01*
G03X11749100Y-6766273I-35814J0D01*
G01X11695100Y-6766273D01*
G03X11659286Y-6802087I0J-35814D01*
G01X11659286Y-6881096D01*
G03X11660260Y-6889394I35814J0D01*
G01X11644240Y-6889394D01*
G03X11645214Y-6881096I-34839J8298D01*
G01X11645214Y-6802087D01*
G03X11609400Y-6766273I-35814J0D01*
G01X11555400Y-6766273D01*
G03X11519586Y-6802087I0J-35814D01*
G01X11519586Y-6881096D01*
G03X11519881Y-6885686I35814J0D01*
G01X11493731Y-6885686D01*
G03X11496327Y-6872300I-33218J13386D01*
G01X11496327Y-6818300D01*
G03X11460513Y-6782486I-35814J0D01*
G01X11381504Y-6782486D01*
G03X11373206Y-6783460I0J-35814D01*
G01X11373206Y-6780140D01*
G03X11381504Y-6781114I8298J34839D01*
G01X11460513Y-6781114D01*
G03X11496327Y-6745300I0J35814D01*
G01X11496327Y-6691300D01*
G03X11460513Y-6655486I-35814J0D01*
G01X11381504Y-6655486D01*
G03X11371732Y-6656845I0J-35814D01*
G01X11371732Y-6654114D01*
G01X11425365Y-6654114D01*
G03X11435950Y-6652514I0J35814D01*
G01X11566701Y-6652514D01*
G03X11577287Y-6654114I10586J34214D01*
G01X11656296Y-6654114D01*
G03X11671300Y-6650820I0J35814D01*
G03X11686304Y-6654114I15004J32520D01*
G01X11765313Y-6654114D01*
G03X11798907Y-6630714I0J35814D01*
G01X12037917Y-6630714D01*
G03X12050000Y-6632814I12083J33714D01*
G01X12149797Y-6632814D01*
G03X12151786Y-6642083I35703J2814D01*
G01X12151786Y-6886486D01*
G03X12138896Y-6884086I-12890J-33414D01*
G01X12059887Y-6884086D01*
G03X12049301Y-6885686I0J-35814D01*
G01X11982050Y-6885686D01*
G03X11971465Y-6884086I-10586J-34214D01*
G01X11914899Y-6884086D01*
G03X11899900Y-6887378I0J-35814D01*
G03X11884901Y-6884086I-14999J-32522D01*
G01X11828336Y-6884086D01*
G03X11809572Y-6889394I0J-35814D01*
G01X11783940Y-6889394D01*
G03X11784914Y-6881096I-34839J8298D01*
G01X11613121Y-5694200D02*
G01X11613121Y-5634200D01*
G03X11612921Y-5630418I-35814J0D01*
G01X11648186Y-5630418D01*
G01X11648186Y-5702253D01*
G01X11612204Y-5702253D01*
G03X11613121Y-5694200I-34897J8053D01*
G01X12897344Y-6430714D02*
G01X12923415Y-6456785D01*
G03X12966700Y-6474714I43285J43285D01*
G01X12980381Y-6474714D01*
G03X12980086Y-6479304I35519J-4590D01*
G01X12980086Y-6558313D01*
G03X13009698Y-6593586I35814J0D01*
G01X12966656Y-6593586D01*
G01X12803784Y-6430714D01*
G01X12897344Y-6430714D01*
G01X13119786Y-6479304D02*
G01X13119786Y-6558313D01*
G03X13143402Y-6591986I35814J0D01*
G01X13108699Y-6591986D01*
G03X13093700Y-6595278I0J-35814D01*
G03X13081736Y-6592115I-14999J-32522D01*
G03X13105714Y-6558313I-11836J33802D01*
G01X13105714Y-6479304D01*
G03X13105419Y-6474714I-35814J0D01*
G01X13120081Y-6474714D01*
G03X13119786Y-6479304I35519J-4590D01*
G54D11*
G01X11112500Y-5732589D02*
G01X11112500Y-5706681D01*
G01X11139246Y-5760618D02*
G01X11165154Y-5760618D01*
G01X11085754Y-5760618D02*
G01X11059846Y-5760618D01*
G01X11424854Y-5981700D02*
G01X11398946Y-5981700D01*
G01X11495100Y-6048946D02*
G01X11495100Y-6074854D01*
G01X11495100Y-5914453D02*
G01X11495100Y-5888545D01*
G54D12*
G01X11477562Y-5664200D02*
G01X11451654Y-5664200D01*
G01X11577053Y-5664200D02*
G01X11602961Y-5664200D01*
G54D11*
G01X12034741Y-5626100D02*
G01X12008833Y-5626100D01*
G01X12073992Y-5652846D02*
G01X12073992Y-5678754D01*
G01X12073992Y-5599354D02*
G01X12073992Y-5573446D01*
G01X11460259Y-6845300D02*
G01X11486167Y-6845300D01*
G01X11421008Y-6818554D02*
G01X11421008Y-6792646D01*
G01X11582400Y-6802341D02*
G01X11582400Y-6776433D01*
G01X11555654Y-6841592D02*
G01X11529746Y-6841592D01*
G01X11609146Y-6841592D02*
G01X11635054Y-6841592D01*
G01X11722100Y-6802341D02*
G01X11722100Y-6776433D01*
G01X11695354Y-6841592D02*
G01X11669446Y-6841592D01*
G01X11748846Y-6841592D02*
G01X11774754Y-6841592D01*
G01X11564841Y-6197600D02*
G01X11538933Y-6197600D01*
G01X11604092Y-6224346D02*
G01X11604092Y-6250254D01*
G01X11604092Y-6170854D02*
G01X11604092Y-6144946D01*
G01X11460259Y-6197600D02*
G01X11486167Y-6197600D01*
G01X11421008Y-6170854D02*
G01X11421008Y-6144946D01*
G01X11421008Y-6224346D02*
G01X11421008Y-6250254D01*
G01X11564841Y-6337300D02*
G01X11538933Y-6337300D01*
G01X11604092Y-6364046D02*
G01X11604092Y-6389954D01*
G01X11604092Y-6310554D02*
G01X11604092Y-6284646D01*
G01X11460259Y-6337300D02*
G01X11486167Y-6337300D01*
G01X11421008Y-6310554D02*
G01X11421008Y-6284646D01*
G01X11421008Y-6364046D02*
G01X11421008Y-6389954D01*
G01X11460259Y-6718300D02*
G01X11486167Y-6718300D01*
G01X11421008Y-6691554D02*
G01X11421008Y-6665646D01*
G01X11421008Y-6745046D02*
G01X11421008Y-6770954D01*
G54D13*
G01X12567854Y-5689600D02*
G01X12541946Y-5689600D01*
G01X12638100Y-5756846D02*
G01X12638100Y-5782754D01*
G01X12638100Y-5622353D02*
G01X12638100Y-5596445D01*
G54D11*
G01X12755690Y-5219700D02*
G01X12729782Y-5219700D01*
G01X12783718Y-5192954D02*
G01X12783718Y-5167046D01*
G01X12783718Y-5246446D02*
G01X12783718Y-5272354D01*
G01X12999941Y-6781800D02*
G01X12974033Y-6781800D01*
G01X13039192Y-6808546D02*
G01X13039192Y-6834454D01*
G01X13039192Y-6755054D02*
G01X13039192Y-6729146D01*
G01X12754389Y-7078980D02*
G01X12780297Y-7078980D01*
G01X12715138Y-7052234D02*
G01X12715138Y-7026326D01*
G01X12715138Y-7105726D02*
G01X12715138Y-7131634D01*
G01X12992100Y-7116859D02*
G01X12992100Y-7142767D01*
G01X13018846Y-7077608D02*
G01X13044754Y-7077608D01*
G01X12965354Y-7077608D02*
G01X12939446Y-7077608D01*
G01X13069646Y-6518808D02*
G01X13095554Y-6518808D01*
G01X13016154Y-6518808D02*
G01X12990246Y-6518808D01*
G54D13*
G01X13263656Y-5243703D02*
G01X13289564Y-5243703D01*
G01X13017165Y-5243703D02*
G01X12991257Y-5243703D01*
G01X13140411Y-5292449D02*
G01X13140411Y-5318357D01*
G01X13140411Y-5194957D02*
G01X13140411Y-5169049D01*
G54D11*
G01X13200159Y-5867400D02*
G01X13226067Y-5867400D01*
G01X13160908Y-5840654D02*
G01X13160908Y-5814746D01*
G01X13182600Y-6151659D02*
G01X13182600Y-6177567D01*
G01X13209346Y-6112408D02*
G01X13235254Y-6112408D01*
G01X13155854Y-6112408D02*
G01X13129946Y-6112408D01*
G54D13*
G01X13182600Y-7244146D02*
G01X13182600Y-7270054D01*
G01X13249847Y-7173900D02*
G01X13275755Y-7173900D01*
G01X13115354Y-7173900D02*
G01X13089446Y-7173900D01*
G54D11*
G01X13209346Y-6518808D02*
G01X13235254Y-6518808D01*
G01X13155854Y-6518808D02*
G01X13129946Y-6518808D01*
G01X13393611Y-6654800D02*
G01X13419519Y-6654800D01*
G01X13365582Y-6681546D02*
G01X13365582Y-6707454D01*
G01X13365582Y-6628054D02*
G01X13365582Y-6602146D01*
G01X13466859Y-6261100D02*
G01X13492767Y-6261100D01*
G01X13427608Y-6234354D02*
G01X13427608Y-6208446D01*
G01X13427608Y-6287846D02*
G01X13427608Y-6313754D01*
G04 Copper End*

G04 Pad Start*
G54D14*
G01X11318723Y-5981700D03*
G01X11211077Y-5981700D03*
G54D15*
G01X12865100Y-5476723D03*
G01X12865100Y-5369077D03*
G54D17*
G01X12870282Y-5219700D03*
G01X12783718Y-5219700D03*
G54D18*
G01X11112500Y-5847182D03*
G01X11112500Y-5760618D03*
G54D19*
G01X11307293Y-5759196D03*
G01X11307293Y-5569204D03*
G01X11527307Y-5759196D03*
G01X11527307Y-5569204D03*
G01X11527307Y-5664200D03*
G54D20*
G01X13140411Y-5243703D03*
G01X13140411Y-5473700D03*
G01X13140411Y-5703697D03*
G54D21*
G01X13707389Y-5473700D03*
G54D22*
G01X12992100Y-7077608D03*
G01X12992100Y-6968592D03*
G54D23*
G01X11604092Y-6337300D03*
G01X11713108Y-6337300D03*
G54D24*
G01X11495100Y-5981700D03*
G01X11695100Y-5981700D03*
G54D23*
G01X11421008Y-6337300D03*
G01X11311992Y-6337300D03*
G01X11421008Y-6197600D03*
G01X11311992Y-6197600D03*
G01X11421008Y-6845300D03*
G01X11311992Y-6845300D03*
G01X11421008Y-6718300D03*
G01X11311992Y-6718300D03*
G54D24*
G01X12638100Y-5689600D03*
G01X12838100Y-5689600D03*
G54D23*
G01X13160908Y-5867400D03*
G01X13051892Y-5867400D03*
G54D22*
G01X11722100Y-6841592D03*
G01X11722100Y-6950608D03*
G01X11582400Y-6841592D03*
G01X11582400Y-6950608D03*
G01X13182600Y-6112408D03*
G01X13182600Y-6003392D03*
G54D23*
G01X13427608Y-6261100D03*
G01X13318592Y-6261100D03*
G54D22*
G01X13042900Y-6518808D03*
G01X13042900Y-6409792D03*
G01X13182600Y-6518808D03*
G01X13182600Y-6409792D03*
G54D23*
G01X13039192Y-6781800D03*
G01X13148208Y-6781800D03*
G54D25*
G01X13182600Y-7173900D03*
G01X13182600Y-6973900D03*
G01X12407900Y-5421300D03*
G01X12407900Y-5221300D03*
G01X12407900Y-7389800D03*
G01X12407900Y-7189800D03*
G54D23*
G01X11604092Y-6197600D03*
G01X11713108Y-6197600D03*
G54D22*
G01X13042900Y-6003392D03*
G01X13042900Y-6112408D03*
G54D23*
G01X13160908Y-6261100D03*
G01X13051892Y-6261100D03*
G54D22*
G01X12407900Y-5622392D03*
G01X12407900Y-5731408D03*
G54D23*
G01X12073992Y-5626100D03*
G01X12183008Y-5626100D03*
G54D22*
G01X12412980Y-6868262D03*
G01X12412980Y-6977278D03*
G54D23*
G01X12715138Y-7078980D03*
G01X12606122Y-7078980D03*
G01X12208408Y-6946900D03*
G01X12099392Y-6946900D03*
G01X11725808Y-6464300D03*
G01X11616792Y-6464300D03*
G01X11725808Y-6591300D03*
G01X11616792Y-6591300D03*
G54D17*
G01X11397082Y-6464300D03*
G01X11310518Y-6464300D03*
G01X11397082Y-6591300D03*
G01X11310518Y-6591300D03*
G01X13050418Y-6654800D03*
G01X13136982Y-6654800D03*
G01X13279018Y-6654800D03*
G01X13365582Y-6654800D03*
G01X11943182Y-6946900D03*
G01X11856618Y-6946900D03*
G54D26*
G01X12100000Y-6069500D03*
G01X12100000Y-6169500D03*
G01X12100000Y-6269500D03*
G01X12100000Y-6369500D03*
G01X12100000Y-6469500D03*
G01X12100000Y-6569500D03*
G54D27*
G01X12213000Y-6580000D03*
G01X12313000Y-6580000D03*
G01X12413000Y-6580000D03*
G01X12513000Y-6580000D03*
G54D26*
G01X12625000Y-6569500D03*
G01X12625000Y-6469500D03*
G01X12625000Y-6369500D03*
G01X12625000Y-6269500D03*
G01X12625000Y-6169500D03*
G01X12625000Y-6069500D03*
G54D27*
G01X12513000Y-6060000D03*
G01X12413000Y-6060000D03*
G01X12313000Y-6060000D03*
G01X12213000Y-6060000D03*
G54D28*
G01X12363000Y-6319500D03*
G54D29*
G01X12662878Y-4815000D03*
G01X12152897Y-4815000D03*
G01X12407887Y-4815000D03*
G01X12152922Y-7800000D03*
G01X12662903Y-7800000D03*
G01X12407913Y-7800000D03*
G04 Pad End*

G04 Via Start*
G54D30*
G01X12302490Y-6320790D03*
G01X12363000Y-6319500D03*
G01X12241530Y-6322060D03*
G01X12423852Y-6319500D03*
G01X12484238Y-6319500D03*
G01X12241646Y-6261192D03*
G01X12302606Y-6259922D03*
G01X12363116Y-6258632D03*
G01X12423968Y-6258632D03*
G01X12484354Y-6258632D03*
G01X12241646Y-6383691D03*
G01X12302606Y-6382421D03*
G01X12363116Y-6381130D03*
G01X12423968Y-6381130D03*
G01X12484354Y-6381130D03*
G01X12241646Y-6200482D03*
G01X12302606Y-6199212D03*
G01X12363116Y-6197922D03*
G01X12423968Y-6197922D03*
G01X12484354Y-6197922D03*
G01X12241646Y-6444077D03*
G01X12302606Y-6442807D03*
G01X12363116Y-6441517D03*
G01X12423968Y-6441517D03*
G01X12484354Y-6441517D03*
G01X11996885Y-6369500D03*
G01X12623800Y-6680200D03*
G54D31*
G01X13677600Y-6032500D03*
G01X13769300Y-5816600D03*
G54D30*
G01X11709400Y-5763467D03*
G54D32*
G01X11209300Y-4859300D03*
G01X13609300Y-7759300D03*
G01X13609300Y-4859300D03*
G01X11209300Y-7759300D03*
G54D30*
G01X12319000Y-6946900D03*
G01X12319000Y-6769100D03*
G01X12319000Y-6858000D03*
G01X12522200Y-6769100D03*
G01X12522200Y-6858000D03*
G01X12522200Y-6946900D03*
G01X12319000Y-7048500D03*
G01X12268200Y-7124700D03*
G01X12268200Y-7203735D03*
G01X12268200Y-7289800D03*
G01X12268200Y-7378700D03*
G01X12268200Y-7464579D03*
G01X12014200Y-7531100D03*
G01X12014200Y-7620000D03*
G01X12014200Y-7721600D03*
G01X12014200Y-7810500D03*
G01X12014200Y-7899400D03*
G01X12014200Y-7988300D03*
G01X12547600Y-7188200D03*
G01X12547600Y-7277100D03*
G01X12547600Y-7366000D03*
G01X12547600Y-7454900D03*
G01X12801600Y-7531100D03*
G01X12801600Y-7620000D03*
G01X12801600Y-7721600D03*
G01X12801600Y-7810500D03*
G01X12801600Y-7899400D03*
G01X12801600Y-7988300D03*
G01X12598400Y-6972300D03*
G01X12674600Y-6972300D03*
G01X12623800Y-7188200D03*
G01X12839700Y-7048500D03*
G01X12776200Y-6972300D03*
G01X12776200Y-7188200D03*
G01X12700000Y-7188200D03*
G01X12217400Y-5969000D03*
G01X12306300Y-5969000D03*
G01X12115800Y-5969000D03*
G01X12001500Y-6070600D03*
G01X12001500Y-6159500D03*
G01X12001500Y-6248400D03*
G01X12306300Y-5880100D03*
G01X12306300Y-5803900D03*
G01X12306300Y-5727700D03*
G01X12217400Y-5727700D03*
G01X12128500Y-5727700D03*
G01X12217400Y-5524500D03*
G01X12128959Y-5524500D03*
G01X12255500Y-5461000D03*
G01X12255500Y-5384800D03*
G01X12255500Y-5308600D03*
G01X12255500Y-5232400D03*
G01X12255500Y-5156200D03*
G01X12001500Y-5080000D03*
G01X12001500Y-5003800D03*
G01X12001500Y-4927600D03*
G01X12001500Y-4853188D03*
G01X12001500Y-4775200D03*
G01X12001500Y-4699000D03*
G01X12001500Y-4624584D03*
G01X12814300Y-4622800D03*
G01X12814300Y-4699000D03*
G01X12814300Y-4776064D03*
G01X12814300Y-4851400D03*
G01X12814300Y-4926852D03*
G01X12814300Y-5003800D03*
G01X12814300Y-5080000D03*
G01X12560300Y-5156200D03*
G01X12560300Y-5232400D03*
G01X12560300Y-5308600D03*
G01X12560300Y-5384800D03*
G01X12560300Y-5460146D03*
G01X12560300Y-5539940D03*
G01X12496800Y-5689600D03*
G01X12496800Y-5600700D03*
G01X12496800Y-5778500D03*
G01X12077700Y-5080000D03*
G01X12255500Y-5080000D03*
G01X12166600Y-5080000D03*
G01X12560300Y-5080000D03*
G01X12725400Y-5080000D03*
G01X12645607Y-5080000D03*
G01X12103100Y-7531100D03*
G01X12192000Y-7531100D03*
G01X12268200Y-7531100D03*
G01X12547600Y-7531100D03*
G01X12628354Y-7531100D03*
G01X12718894Y-7531100D03*
G01X12039600Y-5524500D03*
G01X11963400Y-5524500D03*
G01X11963400Y-5626100D03*
G01X11963400Y-5727179D03*
G01X12039600Y-5727700D03*
G01X12509500Y-5880100D03*
G01X12509500Y-5969000D03*
G01X12598400Y-5969000D03*
G01X12688967Y-5969000D03*
G01X12776200Y-5969000D03*
G01X12839700Y-5930900D03*
G01X12700000Y-5829300D03*
G01X12115800Y-6769100D03*
G01X12115800Y-6845300D03*
G01X12039600Y-6845300D03*
G01X11970661Y-6845300D03*
G01X11899900Y-6845300D03*
G01X11823700Y-6845300D03*
G01X12611100Y-6832600D03*
G01X12687300Y-6896100D03*
G01X11544300Y-6718300D03*
G01X11620500Y-6718300D03*
G01X11696700Y-6718300D03*
G01X11772900Y-6718300D03*
G01X11823700Y-6769100D03*
G01X11836400Y-6680200D03*
G01X11912600Y-6680200D03*
G01X11965500Y-6740059D03*
G01X12039600Y-6769100D03*
G01X12598400Y-5829300D03*
G01X13144500Y-5105400D03*
G01X13144500Y-5359400D03*
G01X13140411Y-5589235D03*
G01X13716000Y-5194300D03*
G01X12954000Y-5105400D03*
G01X12979400Y-5588000D03*
G01X12966700Y-5359400D03*
G01X12750800Y-6629400D03*
G01X12814300Y-6692900D03*
G01X12877800Y-6756400D03*
G01X13271500Y-6781800D03*
G01X13347700Y-6870700D03*
G01X13347700Y-7073900D03*
G01X13144500Y-7340600D03*
G01X12992100Y-7200900D03*
G01X13284200Y-5867400D03*
G01X13284200Y-5956300D03*
G01X13284200Y-6045200D03*
G01X13347700Y-5867400D03*
G01X13411200Y-5930900D03*
G01X13474700Y-5981700D03*
G01X13500100Y-6050714D03*
G01X13525500Y-6134100D03*
G01X13373100Y-6134100D03*
G01X13291581Y-6134100D03*
G01X13449300Y-6134100D03*
G01X13576300Y-6210300D03*
G01X13576300Y-6299200D03*
G01X13576300Y-6388100D03*
G01X13576300Y-6477000D03*
G01X13576300Y-6565900D03*
G01X13576300Y-6654800D03*
G01X13576300Y-6743700D03*
G01X13512800Y-6807200D03*
G01X13449300Y-6870700D03*
G01X13449300Y-7073900D03*
G01X13550900Y-7073900D03*
G01X13627100Y-6997700D03*
G01X13703300Y-6921500D03*
G01X13766800Y-6845300D03*
G01X13779500Y-6743700D03*
G01X13779500Y-6655440D03*
G01X13779500Y-6566330D03*
G01X13779500Y-6477000D03*
G01X13779500Y-6388100D03*
G01X13779500Y-6299200D03*
G01X13779500Y-6210300D03*
G01X13817600Y-6134100D03*
G01X13347700Y-7200900D03*
G01X11531600Y-5461000D03*
G01X11633200Y-5461000D03*
G01X11734800Y-5461000D03*
G01X11798300Y-5524500D03*
G01X11823700Y-5613400D03*
G01X11823700Y-5702300D03*
G01X11823700Y-5791200D03*
G01X11823700Y-5791200D03*
G01X11849100Y-5864753D03*
G01X11849100Y-5956300D03*
G01X11849100Y-6035337D03*
G01X11849100Y-6115100D03*
G01X11849100Y-6197600D03*
G01X11912600Y-6248400D03*
G01X11417300Y-5461000D03*
G01X11194960Y-5664200D03*
G01X11214100Y-5854700D03*
G01X11112500Y-5664200D03*
G01X10998200Y-5753100D03*
G01X10998200Y-5668876D03*
G01X10998200Y-5842000D03*
G01X10998200Y-5934339D03*
G01X11036300Y-6019800D03*
G01X11112500Y-6083300D03*
G01X11201400Y-6083300D03*
G01X11201400Y-6159500D03*
G01X11201400Y-6248400D03*
G01X11201400Y-6333484D03*
G01X11201400Y-6413500D03*
G01X11201400Y-6502400D03*
G01X11201400Y-6591300D03*
G01X11201400Y-6680200D03*
G01X11201400Y-6781800D03*
G01X11201400Y-6870700D03*
G01X11201400Y-6959600D03*
G01X11252200Y-7023100D03*
G01X11328400Y-7061200D03*
G01X11430000Y-7061200D03*
G01X11518900Y-7061200D03*
G01X11607800Y-7061200D03*
G01X11696700Y-7061200D03*
G01X11785600Y-7061200D03*
G01X11874500Y-7061200D03*
G01X11963400Y-7061200D03*
G01X12052300Y-7061200D03*
G01X12141200Y-7061200D03*
G01X12230100Y-7061200D03*
G01X11417300Y-5842000D03*
G01X11595100Y-5854700D03*
G01X11595100Y-6108700D03*
G01X11417300Y-6108700D03*
G01X11513820Y-6268720D03*
G01X11513820Y-6380480D03*
G01X12776200Y-5867400D03*
G01X12674600Y-5219700D03*
G01X12674600Y-5308600D03*
G01X12763500Y-5308600D03*
G01X12763500Y-5384800D03*
G01X12763500Y-5461000D03*
G01X12649200Y-5537200D03*
G01X12763500Y-5537200D03*
G01X12001500Y-5969000D03*
G01X12890500Y-7124700D03*
G01X12992100Y-7289800D03*
G01X13055600Y-7340600D03*
G01X13246100Y-7340600D03*
G01X13335000Y-7289800D03*
G01X12928600Y-6819900D03*
G01X11176000Y-5575300D03*
G01X11290300Y-5461000D03*
G01X11176000Y-5461000D03*
G01X13055600Y-6870700D03*
G04 Via End*

G04 Track Start*
G54D33*
G01X11747608Y-6569500D02*
G01X11725808Y-6591300D01*
G01X11435182Y-6591300D02*
G01X11616792Y-6591300D01*
G01X12233808Y-5626100D02*
G01X12404192Y-5626100D01*
G01X12407900Y-5622392D01*
G01X12678000Y-6269500D02*
G01X13043492Y-6269500D01*
G01X13051892Y-6261100D01*
G01X12048000Y-6569500D02*
G01X12000000Y-6569500D01*
G01X11747608Y-6569500D01*
G01X11310518Y-6464300D02*
G01X11310518Y-6591300D01*
G01X11731008Y-6469500D02*
G01X11725808Y-6464300D01*
G01X12048000Y-6469500D02*
G01X11731008Y-6469500D01*
G01X11713108Y-6337300D02*
G01X11811000Y-6337300D01*
G01X11713108Y-6210300D02*
G01X11713108Y-6337300D01*
G01X12213000Y-6580000D02*
G01X12213000Y-6942308D01*
G01X12208408Y-6946900D01*
G01X11311992Y-6870700D02*
G01X11311992Y-6905092D01*
G01X11353800Y-6946900D01*
G01X11582400Y-6946900D01*
G01X11310518Y-6591300D02*
G01X11310518Y-6716827D01*
G01X11311992Y-6718300D01*
G01X11311992Y-6845300D01*
G01X11582400Y-6950608D02*
G01X11722100Y-6950608D01*
G01X11315366Y-6181525D02*
G01X11310518Y-6186373D01*
G01X11722100Y-6950608D02*
G01X11852910Y-6950608D01*
G01X11856618Y-6946900D01*
G01X11310518Y-6186373D02*
G01X11310518Y-6464300D01*
G01X11943182Y-6946900D02*
G01X12099392Y-6946900D01*
G01X12407900Y-5446700D02*
G01X12407900Y-5622392D01*
G01X12395200Y-5434000D02*
G01X12407900Y-5446700D01*
G01X13051892Y-5867400D02*
G01X13051892Y-5994400D01*
G01X12915900Y-5994400D02*
G01X12840800Y-6069500D01*
G01X12625000Y-6069500D01*
G01X12678000Y-6169500D02*
G01X12902192Y-6169500D01*
G01X12950292Y-6121400D01*
G01X13033908Y-6121400D01*
G01X13042900Y-6112408D01*
G01X13042900Y-6003392D02*
G01X13182600Y-6003392D01*
G01X13051892Y-5994400D02*
G01X12915900Y-5994400D01*
G01X12625000Y-6369500D02*
G01X12922700Y-6369500D01*
G01X12966700Y-6413500D01*
G01X13178892Y-6413500D01*
G01X13182600Y-6409792D01*
G01X13025018Y-6654800D02*
G01X12941300Y-6654800D01*
G01X13253618Y-6654800D02*
G01X13136982Y-6654800D01*
G01X13136982Y-6770573D02*
G01X13148208Y-6781800D01*
G01X13136982Y-6770573D02*
G01X13136982Y-6654800D01*
G01X11811000Y-6337300D02*
G01X11843200Y-6369500D01*
G01X11996885Y-6369500D01*
G01X12100000Y-6369500D01*
G01X12623800Y-6680200D02*
G01X12623800Y-6570698D01*
G01X12624999Y-6569499D01*
G01X13182600Y-6973900D02*
G01X13177291Y-6968592D01*
G01X13498500Y-6973900D02*
G01X13182600Y-6973900D01*
G01X13677900Y-6794500D02*
G01X13498500Y-6973900D01*
G01X13677900Y-6032500D02*
G01X13677900Y-6794500D01*
G01X13349097Y-5703697D02*
G01X13677900Y-6032500D01*
G01X13140411Y-5703697D02*
G01X13349097Y-5703697D01*
G01X12912191Y-6968591D02*
G01X12623800Y-6680200D01*
G01X12992100Y-6968591D02*
G01X12912191Y-6968591D01*
G01X13177291Y-6968592D02*
G01X12992100Y-6968591D01*
G01X11397082Y-6464300D02*
G01X11616792Y-6464300D01*
G01X11315366Y-5767937D02*
G01X11315366Y-6181525D01*
G54D34*
G01X12407900Y-5208600D02*
G01X12407900Y-4787900D01*
G54D33*
G01X11709400Y-6206592D02*
G01X11713108Y-6210300D01*
G01X11709400Y-5763467D02*
G01X11531578Y-5763467D01*
G01X11527307Y-5759196D01*
G01X11677904Y-5569204D02*
G01X11527307Y-5569204D01*
G01X11709400Y-5763467D02*
G01X11709400Y-6206592D01*
G01X11709400Y-5763467D02*
G01X11709400Y-5600700D01*
G01X11677904Y-5569204D01*
G01X12413000Y-6609500D02*
G01X12413000Y-6861892D01*
G01X13160908Y-6261100D02*
G01X13318592Y-6261100D01*
G01X13681989Y-5473700D02*
G01X13678967Y-5476723D01*
G01X12865100Y-5476723D01*
G01X12865100Y-5637200D01*
G01X12863500Y-5638800D01*
G01X12863500Y-5815000D01*
G01X12915900Y-5867400D01*
G01X13051892Y-5867400D01*
G01X13707389Y-5473700D02*
G01X13681989Y-5473700D01*
G01X12864364Y-5240654D02*
G01X12864364Y-5369813D01*
G01X12941300Y-6654800D02*
G01X12756000Y-6469500D01*
G01X12625000Y-6469500D01*
G54D34*
G01X12407900Y-7389800D02*
G01X12407900Y-7799987D01*
G54D33*
G01X12413445Y-7184255D02*
G01X12413445Y-7080055D01*
G01X12413445Y-6996700D01*
G01X12588537Y-7080054D02*
G01X12413445Y-7080055D01*
G01X12413000Y-6029500D02*
G01X12413000Y-5736508D01*
G01X11112500Y-5847182D02*
G01X11112500Y-5943600D01*
G01X11150600Y-5981700D01*
G01X11211077Y-5981700D01*
G04 Track End*

M02*

